<mxfile host="65bd71144e">
    <diagram id="0g8BXqu2HSocH2PIicUf" name="Page-1">
        <mxGraphModel dx="1582" dy="804" grid="0" gridSize="10" guides="1" tooltips="1" connect="1" arrows="1" fold="1" page="1" pageScale="1" pageWidth="1169" pageHeight="827" math="0" shadow="0">
            <root>
                <mxCell id="0"/>
                <mxCell id="1" parent="0"/>
                <mxCell id="PmaRed3diDtcTDXIdMSH-81" value="Sentiment Stream for Suhas" style="rounded=0;whiteSpace=wrap;html=1;fontSize=10;fillColor=#dae8fc;strokeColor=#6c8ebf;verticalAlign=bottom;" parent="1" vertex="1">
                    <mxGeometry x="370.84" y="3445.5" width="260.42" height="68.25" as="geometry"/>
                </mxCell>
                <mxCell id="PmaRed3diDtcTDXIdMSH-80" value="Sentiment Stream for Graeme" style="rounded=0;whiteSpace=wrap;html=1;fontSize=10;fillColor=#dae8fc;strokeColor=#6c8ebf;verticalAlign=top;" parent="1" vertex="1">
                    <mxGeometry x="370.66999999999996" y="3373" width="260.42" height="68.25" as="geometry"/>
                </mxCell>
                <mxCell id="AgFE_MD2gH8KqmMQmdO5-352" value="Service Bus" style="rounded=1;whiteSpace=wrap;html=1;labelBackgroundColor=none;fontSize=11;fillColor=#e1d5e7;strokeColor=#9673a6;verticalAlign=bottom;" parent="1" vertex="1">
                    <mxGeometry x="394" y="2641.67" width="328" height="167.33" as="geometry"/>
                </mxCell>
                <mxCell id="AgFE_MD2gH8KqmMQmdO5-350" value="HR Service" style="rounded=1;whiteSpace=wrap;html=1;labelBackgroundColor=none;fontSize=11;fillColor=#dae8fc;strokeColor=#6c8ebf;verticalAlign=top;" parent="1" vertex="1">
                    <mxGeometry x="601.66" y="2499" width="108.23" height="130" as="geometry"/>
                </mxCell>
                <mxCell id="AgFE_MD2gH8KqmMQmdO5-348" value="Correspondence&lt;br&gt;Service" style="rounded=1;whiteSpace=wrap;html=1;labelBackgroundColor=none;fontSize=11;fillColor=#dae8fc;strokeColor=#6c8ebf;verticalAlign=top;" parent="1" vertex="1">
                    <mxGeometry x="422.4200000000001" y="2499" width="102" height="130" as="geometry"/>
                </mxCell>
                <mxCell id="AgFE_MD2gH8KqmMQmdO5-344" value="" style="rounded=1;whiteSpace=wrap;html=1;labelBackgroundColor=none;fontSize=11;fillColor=#d5e8d4;strokeColor=#82b366;" parent="1" vertex="1">
                    <mxGeometry x="107" y="2643.67" width="219.7" height="171" as="geometry"/>
                </mxCell>
                <mxCell id="AgFE_MD2gH8KqmMQmdO5-168" value="" style="rounded=1;whiteSpace=wrap;html=1;labelBackgroundColor=none;fontSize=11;fillColor=#d5e8d4;strokeColor=#82b366;" parent="1" vertex="1">
                    <mxGeometry x="168" y="381" width="265" height="155" as="geometry"/>
                </mxCell>
                <mxCell id="AgFE_MD2gH8KqmMQmdO5-167" value="" style="rounded=1;whiteSpace=wrap;html=1;labelBackgroundColor=none;fontSize=11;fillColor=#d5e8d4;strokeColor=#82b366;" parent="1" vertex="1">
                    <mxGeometry x="165" y="52" width="120" height="165" as="geometry"/>
                </mxCell>
                <mxCell id="xG1OaEvJ-ssB0CjSIshb-7" style="edgeStyle=orthogonalEdgeStyle;rounded=0;orthogonalLoop=1;jettySize=auto;html=1;entryX=0.005;entryY=0.63;entryDx=0;entryDy=0;entryPerimeter=0;" parent="1" source="xG1OaEvJ-ssB0CjSIshb-1" target="xG1OaEvJ-ssB0CjSIshb-6" edge="1">
                    <mxGeometry relative="1" as="geometry"/>
                </mxCell>
                <mxCell id="AgFE_MD2gH8KqmMQmdO5-166" style="edgeStyle=orthogonalEdgeStyle;rounded=0;orthogonalLoop=1;jettySize=auto;html=1;fontSize=11;startArrow=none;startFill=0;endArrow=classic;endFill=1;" parent="1" source="xG1OaEvJ-ssB0CjSIshb-1" target="AgFE_MD2gH8KqmMQmdO5-165" edge="1">
                    <mxGeometry relative="1" as="geometry"/>
                </mxCell>
                <mxCell id="xG1OaEvJ-ssB0CjSIshb-1" value="" style="aspect=fixed;html=1;points=[];align=center;image;fontSize=12;image=img/lib/azure2/compute/Function_Apps.svg;" parent="1" vertex="1">
                    <mxGeometry x="200" y="120" width="50" height="44" as="geometry"/>
                </mxCell>
                <mxCell id="xG1OaEvJ-ssB0CjSIshb-2" value="Graeme" style="shape=umlActor;verticalLabelPosition=bottom;verticalAlign=top;html=1;outlineConnect=0;" parent="1" vertex="1">
                    <mxGeometry x="30" y="112" width="30" height="60" as="geometry"/>
                </mxCell>
                <mxCell id="xG1OaEvJ-ssB0CjSIshb-4" style="edgeStyle=orthogonalEdgeStyle;rounded=0;orthogonalLoop=1;jettySize=auto;html=1;" parent="1" source="xG1OaEvJ-ssB0CjSIshb-3" target="xG1OaEvJ-ssB0CjSIshb-1" edge="1">
                    <mxGeometry relative="1" as="geometry"/>
                </mxCell>
                <mxCell id="xG1OaEvJ-ssB0CjSIshb-3" value="" style="verticalLabelPosition=bottom;verticalAlign=top;html=1;shadow=0;dashed=0;strokeWidth=1;shape=mxgraph.android.phone2;strokeColor=#c0c0c0;" parent="1" vertex="1">
                    <mxGeometry x="70" y="112" width="30" height="60" as="geometry"/>
                </mxCell>
                <mxCell id="xG1OaEvJ-ssB0CjSIshb-11" style="edgeStyle=orthogonalEdgeStyle;rounded=0;orthogonalLoop=1;jettySize=auto;html=1;entryX=0.48;entryY=0.521;entryDx=0;entryDy=0;entryPerimeter=0;" parent="1" source="xG1OaEvJ-ssB0CjSIshb-6" target="xG1OaEvJ-ssB0CjSIshb-10" edge="1">
                    <mxGeometry relative="1" as="geometry"/>
                </mxCell>
                <mxCell id="xG1OaEvJ-ssB0CjSIshb-6" value="" style="sketch=0;html=1;dashed=0;whitespace=wrap;fillColor=#2875E2;strokeColor=#ffffff;points=[[0.005,0.63,0],[0.1,0.2,0],[0.9,0.2,0],[0.5,0,0],[0.995,0.63,0],[0.72,0.99,0],[0.5,1,0],[0.28,0.99,0]];shape=mxgraph.kubernetes.icon;prIcon=api" parent="1" vertex="1">
                    <mxGeometry x="350" y="112" width="50" height="48" as="geometry"/>
                </mxCell>
                <mxCell id="xG1OaEvJ-ssB0CjSIshb-8" value="Wellbeing rating&lt;br&gt;service" style="text;html=1;align=center;verticalAlign=middle;resizable=0;points=[];autosize=1;strokeColor=none;fillColor=none;" parent="1" vertex="1">
                    <mxGeometry x="174" y="174" width="96" height="32" as="geometry"/>
                </mxCell>
                <mxCell id="xG1OaEvJ-ssB0CjSIshb-9" value="Correspondence&lt;br&gt;service" style="text;html=1;align=center;verticalAlign=middle;resizable=0;points=[];autosize=1;strokeColor=none;fillColor=none;" parent="1" vertex="1">
                    <mxGeometry x="326" y="174" width="99" height="32" as="geometry"/>
                </mxCell>
                <mxCell id="xG1OaEvJ-ssB0CjSIshb-12" style="edgeStyle=orthogonalEdgeStyle;rounded=0;orthogonalLoop=1;jettySize=auto;html=1;entryX=0.5;entryY=0;entryDx=0;entryDy=0;entryPerimeter=0;" parent="1" source="xG1OaEvJ-ssB0CjSIshb-10" target="xG1OaEvJ-ssB0CjSIshb-2" edge="1">
                    <mxGeometry relative="1" as="geometry">
                        <Array as="points">
                            <mxPoint x="375" y="20"/>
                            <mxPoint x="45" y="20"/>
                        </Array>
                    </mxGeometry>
                </mxCell>
                <mxCell id="xG1OaEvJ-ssB0CjSIshb-10" value="" style="html=1;verticalLabelPosition=bottom;align=center;labelBackgroundColor=#ffffff;verticalAlign=top;strokeWidth=2;strokeColor=#0080F0;shadow=0;dashed=0;shape=mxgraph.ios7.icons.mail;" parent="1" vertex="1">
                    <mxGeometry x="360" y="50" width="30" height="16.5" as="geometry"/>
                </mxCell>
                <mxCell id="xG1OaEvJ-ssB0CjSIshb-25" style="edgeStyle=orthogonalEdgeStyle;rounded=0;orthogonalLoop=1;jettySize=auto;html=1;entryX=0;entryY=0.5;entryDx=0;entryDy=0;entryPerimeter=0;" parent="1" source="xG1OaEvJ-ssB0CjSIshb-14" target="xG1OaEvJ-ssB0CjSIshb-24" edge="1">
                    <mxGeometry relative="1" as="geometry"/>
                </mxCell>
                <mxCell id="AgFE_MD2gH8KqmMQmdO5-173" style="edgeStyle=orthogonalEdgeStyle;rounded=0;orthogonalLoop=1;jettySize=auto;html=1;fontSize=11;startArrow=none;startFill=0;endArrow=classic;endFill=1;" parent="1" source="xG1OaEvJ-ssB0CjSIshb-14" target="AgFE_MD2gH8KqmMQmdO5-172" edge="1">
                    <mxGeometry relative="1" as="geometry"/>
                </mxCell>
                <mxCell id="xG1OaEvJ-ssB0CjSIshb-14" value="" style="aspect=fixed;html=1;points=[];align=center;image;fontSize=12;image=img/lib/azure2/compute/Function_Apps.svg;" parent="1" vertex="1">
                    <mxGeometry x="200" y="446" width="50" height="44" as="geometry"/>
                </mxCell>
                <mxCell id="xG1OaEvJ-ssB0CjSIshb-15" value="Suhas" style="shape=umlActor;verticalLabelPosition=bottom;verticalAlign=top;html=1;outlineConnect=0;" parent="1" vertex="1">
                    <mxGeometry x="30" y="438" width="30" height="60" as="geometry"/>
                </mxCell>
                <mxCell id="xG1OaEvJ-ssB0CjSIshb-16" style="edgeStyle=orthogonalEdgeStyle;rounded=0;orthogonalLoop=1;jettySize=auto;html=1;" parent="1" source="xG1OaEvJ-ssB0CjSIshb-17" target="xG1OaEvJ-ssB0CjSIshb-14" edge="1">
                    <mxGeometry relative="1" as="geometry"/>
                </mxCell>
                <mxCell id="xG1OaEvJ-ssB0CjSIshb-17" value="" style="verticalLabelPosition=bottom;verticalAlign=top;html=1;shadow=0;dashed=0;strokeWidth=1;shape=mxgraph.android.phone2;strokeColor=#c0c0c0;" parent="1" vertex="1">
                    <mxGeometry x="70" y="438" width="30" height="60" as="geometry"/>
                </mxCell>
                <mxCell id="xG1OaEvJ-ssB0CjSIshb-28" style="edgeStyle=orthogonalEdgeStyle;rounded=0;orthogonalLoop=1;jettySize=auto;html=1;entryX=1;entryY=0.51;entryDx=0;entryDy=0;entryPerimeter=0;startArrow=none;" parent="1" source="AgFE_MD2gH8KqmMQmdO5-161" target="xG1OaEvJ-ssB0CjSIshb-24" edge="1">
                    <mxGeometry relative="1" as="geometry">
                        <Array as="points">
                            <mxPoint x="350" y="468"/>
                        </Array>
                    </mxGeometry>
                </mxCell>
                <mxCell id="AgFE_MD2gH8KqmMQmdO5-164" style="edgeStyle=orthogonalEdgeStyle;rounded=0;orthogonalLoop=1;jettySize=auto;html=1;entryX=0.481;entryY=0.408;entryDx=0;entryDy=0;entryPerimeter=0;fontSize=11;startArrow=none;startFill=0;endArrow=classic;endFill=1;" parent="1" source="xG1OaEvJ-ssB0CjSIshb-19" target="xG1OaEvJ-ssB0CjSIshb-23" edge="1">
                    <mxGeometry relative="1" as="geometry"/>
                </mxCell>
                <mxCell id="xG1OaEvJ-ssB0CjSIshb-19" value="" style="sketch=0;html=1;dashed=0;whitespace=wrap;fillColor=#2875E2;strokeColor=#ffffff;points=[[0.005,0.63,0],[0.1,0.2,0],[0.9,0.2,0],[0.5,0,0],[0.995,0.63,0],[0.72,0.99,0],[0.5,1,0],[0.28,0.99,0]];shape=mxgraph.kubernetes.icon;prIcon=api" parent="1" vertex="1">
                    <mxGeometry x="497.1" y="438" width="50" height="48" as="geometry"/>
                </mxCell>
                <mxCell id="xG1OaEvJ-ssB0CjSIshb-20" value="Wellbeing rating" style="text;html=1;align=center;verticalAlign=middle;resizable=0;points=[];autosize=1;strokeColor=none;fillColor=none;" parent="1" vertex="1">
                    <mxGeometry x="172" y="495" width="100" height="20" as="geometry"/>
                </mxCell>
                <mxCell id="xG1OaEvJ-ssB0CjSIshb-21" value="Wellbeing&lt;br&gt;Emailer" style="text;html=1;align=center;verticalAlign=middle;resizable=0;points=[];autosize=1;strokeColor=none;fillColor=none;" parent="1" vertex="1">
                    <mxGeometry x="354" y="486" width="63" height="32" as="geometry"/>
                </mxCell>
                <mxCell id="xG1OaEvJ-ssB0CjSIshb-22" style="edgeStyle=orthogonalEdgeStyle;rounded=0;orthogonalLoop=1;jettySize=auto;html=1;entryX=0.5;entryY=0;entryDx=0;entryDy=0;entryPerimeter=0;" parent="1" source="xG1OaEvJ-ssB0CjSIshb-23" target="xG1OaEvJ-ssB0CjSIshb-15" edge="1">
                    <mxGeometry relative="1" as="geometry">
                        <Array as="points">
                            <mxPoint x="522" y="346"/>
                            <mxPoint x="45" y="346"/>
                        </Array>
                    </mxGeometry>
                </mxCell>
                <mxCell id="xG1OaEvJ-ssB0CjSIshb-23" value="" style="html=1;verticalLabelPosition=bottom;align=center;labelBackgroundColor=#ffffff;verticalAlign=top;strokeWidth=2;strokeColor=#0080F0;shadow=0;dashed=0;shape=mxgraph.ios7.icons.mail;" parent="1" vertex="1">
                    <mxGeometry x="507.27000000000004" y="375" width="30" height="16.5" as="geometry"/>
                </mxCell>
                <mxCell id="xG1OaEvJ-ssB0CjSIshb-24" value="" style="verticalLabelPosition=bottom;html=1;verticalAlign=top;align=center;strokeColor=none;fillColor=#00BEF2;shape=mxgraph.azure.queue_generic;pointerEvents=1;" parent="1" vertex="1">
                    <mxGeometry x="279" y="460.5" width="50" height="15" as="geometry"/>
                </mxCell>
                <mxCell id="AgFE_MD2gH8KqmMQmdO5-5" value="Graeme" style="shape=umlActor;verticalLabelPosition=bottom;verticalAlign=top;html=1;outlineConnect=0;" parent="1" vertex="1">
                    <mxGeometry x="33.580000000000005" y="1522.96" width="30" height="60" as="geometry"/>
                </mxCell>
                <mxCell id="AgFE_MD2gH8KqmMQmdO5-7" value="" style="verticalLabelPosition=bottom;verticalAlign=top;html=1;shadow=0;dashed=0;strokeWidth=1;shape=mxgraph.android.phone2;strokeColor=#c0c0c0;" parent="1" vertex="1">
                    <mxGeometry x="71.01" y="1522.96" width="30" height="60" as="geometry"/>
                </mxCell>
                <mxCell id="AgFE_MD2gH8KqmMQmdO5-36" style="edgeStyle=orthogonalEdgeStyle;rounded=0;orthogonalLoop=1;jettySize=auto;html=1;" parent="1" source="AgFE_MD2gH8KqmMQmdO5-12" target="AgFE_MD2gH8KqmMQmdO5-7" edge="1">
                    <mxGeometry relative="1" as="geometry"/>
                </mxCell>
                <mxCell id="AgFE_MD2gH8KqmMQmdO5-242" style="edgeStyle=orthogonalEdgeStyle;rounded=0;orthogonalLoop=1;jettySize=auto;html=1;entryX=0.005;entryY=0.63;entryDx=0;entryDy=0;entryPerimeter=0;fontSize=11;fontColor=default;startArrow=classic;startFill=1;endArrow=none;endFill=0;" parent="1" source="AgFE_MD2gH8KqmMQmdO5-12" target="AgFE_MD2gH8KqmMQmdO5-33" edge="1">
                    <mxGeometry relative="1" as="geometry"/>
                </mxCell>
                <mxCell id="AgFE_MD2gH8KqmMQmdO5-12" value="" style="html=1;verticalLabelPosition=bottom;align=center;labelBackgroundColor=#ffffff;verticalAlign=top;strokeWidth=2;strokeColor=#0080F0;shadow=0;dashed=0;shape=mxgraph.ios7.icons.mail;" parent="1" vertex="1">
                    <mxGeometry x="186.42" y="1306.96" width="30" height="16.5" as="geometry"/>
                </mxCell>
                <mxCell id="AgFE_MD2gH8KqmMQmdO5-281" style="edgeStyle=orthogonalEdgeStyle;rounded=0;orthogonalLoop=1;jettySize=auto;html=1;fontSize=11;fontColor=default;startArrow=none;startFill=0;endArrow=classic;endFill=1;dashed=1;" parent="1" source="AgFE_MD2gH8KqmMQmdO5-33" target="AgFE_MD2gH8KqmMQmdO5-279" edge="1">
                    <mxGeometry relative="1" as="geometry"/>
                </mxCell>
                <mxCell id="AgFE_MD2gH8KqmMQmdO5-33" value="" style="sketch=0;html=1;dashed=0;whitespace=wrap;fillColor=#2875E2;strokeColor=#ffffff;points=[[0.005,0.63,0],[0.1,0.2,0],[0.9,0.2,0],[0.5,0,0],[0.995,0.63,0],[0.72,0.99,0],[0.5,1,0],[0.28,0.99,0]];shape=mxgraph.kubernetes.icon;prIcon=api" parent="1" vertex="1">
                    <mxGeometry x="316.9899999999999" y="1284.96" width="50" height="48" as="geometry"/>
                </mxCell>
                <mxCell id="AgFE_MD2gH8KqmMQmdO5-343" style="edgeStyle=orthogonalEdgeStyle;rounded=0;orthogonalLoop=1;jettySize=auto;html=1;fontSize=11;fontColor=default;startArrow=none;startFill=0;endArrow=classic;endFill=1;" parent="1" source="AgFE_MD2gH8KqmMQmdO5-45" target="AgFE_MD2gH8KqmMQmdO5-342" edge="1">
                    <mxGeometry relative="1" as="geometry"/>
                </mxCell>
                <mxCell id="AgFE_MD2gH8KqmMQmdO5-45" value="" style="aspect=fixed;html=1;points=[];align=center;image;fontSize=12;image=img/lib/azure2/compute/Function_Apps.svg;" parent="1" vertex="1">
                    <mxGeometry x="150.29" y="2710" width="50" height="44" as="geometry"/>
                </mxCell>
                <mxCell id="AgFE_MD2gH8KqmMQmdO5-46" value="Graeme" style="shape=umlActor;verticalLabelPosition=bottom;verticalAlign=top;html=1;outlineConnect=0;" parent="1" vertex="1">
                    <mxGeometry x="21.29" y="2702" width="30" height="60" as="geometry"/>
                </mxCell>
                <mxCell id="AgFE_MD2gH8KqmMQmdO5-47" style="edgeStyle=orthogonalEdgeStyle;rounded=0;orthogonalLoop=1;jettySize=auto;html=1;" parent="1" source="AgFE_MD2gH8KqmMQmdO5-48" target="AgFE_MD2gH8KqmMQmdO5-45" edge="1">
                    <mxGeometry relative="1" as="geometry"/>
                </mxCell>
                <mxCell id="AgFE_MD2gH8KqmMQmdO5-48" value="" style="verticalLabelPosition=bottom;verticalAlign=top;html=1;shadow=0;dashed=0;strokeWidth=1;shape=mxgraph.android.phone2;strokeColor=#c0c0c0;" parent="1" vertex="1">
                    <mxGeometry x="61.290000000000006" y="2702" width="30" height="60" as="geometry"/>
                </mxCell>
                <mxCell id="AgFE_MD2gH8KqmMQmdO5-49" value="Wellbeing &lt;br&gt;rating" style="text;html=1;align=center;verticalAlign=middle;resizable=0;points=[];autosize=1;strokeColor=none;fillColor=none;fontSize=11;" parent="1" vertex="1">
                    <mxGeometry x="144.29" y="2758" width="58" height="30" as="geometry"/>
                </mxCell>
                <mxCell id="AgFE_MD2gH8KqmMQmdO5-50" style="edgeStyle=orthogonalEdgeStyle;rounded=0;orthogonalLoop=1;jettySize=auto;html=1;" parent="1" source="AgFE_MD2gH8KqmMQmdO5-51" target="AgFE_MD2gH8KqmMQmdO5-48" edge="1">
                    <mxGeometry relative="1" as="geometry"/>
                </mxCell>
                <mxCell id="AgFE_MD2gH8KqmMQmdO5-51" value="" style="html=1;verticalLabelPosition=bottom;align=center;labelBackgroundColor=#ffffff;verticalAlign=top;strokeWidth=2;strokeColor=#0080F0;shadow=0;dashed=0;shape=mxgraph.ios7.icons.mail;" parent="1" vertex="1">
                    <mxGeometry x="152.7" y="2562.75" width="30" height="16.5" as="geometry"/>
                </mxCell>
                <mxCell id="AgFE_MD2gH8KqmMQmdO5-54" value="" style="sketch=0;html=1;dashed=0;whitespace=wrap;fillColor=#2875E2;strokeColor=#ffffff;points=[[0.005,0.63,0],[0.1,0.2,0],[0.9,0.2,0],[0.5,0,0],[0.995,0.63,0],[0.72,0.99,0],[0.5,1,0],[0.28,0.99,0]];shape=mxgraph.kubernetes.icon;prIcon=api" parent="1" vertex="1">
                    <mxGeometry x="625.8000000000001" y="2541.17" width="50" height="48" as="geometry"/>
                </mxCell>
                <mxCell id="AgFE_MD2gH8KqmMQmdO5-346" style="edgeStyle=orthogonalEdgeStyle;rounded=0;orthogonalLoop=1;jettySize=auto;html=1;entryX=1;entryY=0.5;entryDx=0;entryDy=0;fontSize=11;fontColor=default;startArrow=none;startFill=0;endArrow=classic;endFill=1;exitX=0.995;exitY=0.63;exitDx=0;exitDy=0;exitPerimeter=0;" parent="1" source="AgFE_MD2gH8KqmMQmdO5-54" target="AgFE_MD2gH8KqmMQmdO5-156" edge="1">
                    <mxGeometry relative="1" as="geometry">
                        <Array as="points">
                            <mxPoint x="675.16" y="2570"/>
                            <mxPoint x="701.16" y="2570"/>
                            <mxPoint x="701.16" y="2747"/>
                        </Array>
                    </mxGeometry>
                </mxCell>
                <mxCell id="AgFE_MD2gH8KqmMQmdO5-59" style="edgeStyle=orthogonalEdgeStyle;rounded=0;orthogonalLoop=1;jettySize=auto;html=1;entryX=1.008;entryY=0.559;entryDx=0;entryDy=0;entryPerimeter=0;" parent="1" source="AgFE_MD2gH8KqmMQmdO5-60" target="AgFE_MD2gH8KqmMQmdO5-51" edge="1">
                    <mxGeometry relative="1" as="geometry"/>
                </mxCell>
                <mxCell id="AgFE_MD2gH8KqmMQmdO5-60" value="" style="sketch=0;html=1;dashed=0;whitespace=wrap;fillColor=#2875E2;strokeColor=#ffffff;points=[[0.005,0.63,0],[0.1,0.2,0],[0.9,0.2,0],[0.5,0,0],[0.995,0.63,0],[0.72,0.99,0],[0.5,1,0],[0.28,0.99,0]];shape=mxgraph.kubernetes.icon;prIcon=api" parent="1" vertex="1">
                    <mxGeometry x="431.2500000000001" y="2548" width="50" height="48" as="geometry"/>
                </mxCell>
                <mxCell id="AgFE_MD2gH8KqmMQmdO5-72" value="&lt;strike style=&quot;font-size: 10px&quot;&gt;Send Correspondence&lt;/strike&gt;&lt;br style=&quot;font-size: 10px&quot;&gt;Broadcast Sentiment" style="text;html=1;align=left;verticalAlign=middle;resizable=0;points=[];autosize=1;strokeColor=none;fillColor=none;fontSize=10;" parent="1" vertex="1">
                    <mxGeometry x="554.56" y="2699.25" width="110" height="28" as="geometry"/>
                </mxCell>
                <mxCell id="AgFE_MD2gH8KqmMQmdO5-77" value="Send Correspondence&lt;br style=&quot;font-size: 10px&quot;&gt;&lt;strike style=&quot;font-size: 10px&quot;&gt;Broadcast Sentiment&lt;/strike&gt;" style="text;html=1;align=left;verticalAlign=middle;resizable=0;points=[];autosize=1;strokeColor=none;fillColor=none;fontSize=10;" parent="1" vertex="1">
                    <mxGeometry x="399.33" y="2762" width="110" height="28" as="geometry"/>
                </mxCell>
                <mxCell id="AgFE_MD2gH8KqmMQmdO5-349" style="edgeStyle=orthogonalEdgeStyle;rounded=0;orthogonalLoop=1;jettySize=auto;html=1;entryX=0.5;entryY=1;entryDx=0;entryDy=0;entryPerimeter=0;fontSize=11;fontColor=default;startArrow=classic;startFill=1;endArrow=none;endFill=0;dashed=1;" parent="1" source="AgFE_MD2gH8KqmMQmdO5-154" target="AgFE_MD2gH8KqmMQmdO5-54" edge="1">
                    <mxGeometry relative="1" as="geometry"/>
                </mxCell>
                <mxCell id="AgFE_MD2gH8KqmMQmdO5-154" value="" style="shape=image;verticalLabelPosition=bottom;labelBackgroundColor=default;verticalAlign=top;aspect=fixed;imageAspect=0;image=img/lib/mscae/Service_Bus.svg;direction=east;" parent="1" vertex="1">
                    <mxGeometry x="638.8899999999999" y="2678.17" width="23.83" height="23.83" as="geometry"/>
                </mxCell>
                <mxCell id="AgFE_MD2gH8KqmMQmdO5-156" value="" style="shape=image;verticalLabelPosition=bottom;labelBackgroundColor=default;verticalAlign=top;aspect=fixed;imageAspect=0;image=img/lib/mscae/Service_Bus.svg;" parent="1" vertex="1">
                    <mxGeometry x="445.5699999999999" y="2736" width="23.83" height="23.83" as="geometry"/>
                </mxCell>
                <mxCell id="AgFE_MD2gH8KqmMQmdO5-341" style="edgeStyle=orthogonalEdgeStyle;rounded=0;orthogonalLoop=1;jettySize=auto;html=1;entryX=0.5;entryY=1;entryDx=0;entryDy=0;entryPerimeter=0;fontSize=11;fontColor=default;startArrow=classic;startFill=1;endArrow=none;endFill=0;dashed=1;" parent="1" source="AgFE_MD2gH8KqmMQmdO5-157" target="AgFE_MD2gH8KqmMQmdO5-60" edge="1">
                    <mxGeometry relative="1" as="geometry"/>
                </mxCell>
                <mxCell id="AgFE_MD2gH8KqmMQmdO5-157" value="" style="shape=image;verticalLabelPosition=bottom;labelBackgroundColor=default;verticalAlign=top;aspect=fixed;imageAspect=0;image=img/lib/mscae/Service_Bus.svg;" parent="1" vertex="1">
                    <mxGeometry x="444.34000000000003" y="2677.42" width="23.83" height="23.83" as="geometry"/>
                </mxCell>
                <mxCell id="AgFE_MD2gH8KqmMQmdO5-163" style="edgeStyle=orthogonalEdgeStyle;rounded=0;orthogonalLoop=1;jettySize=auto;html=1;entryX=0.005;entryY=0.63;entryDx=0;entryDy=0;entryPerimeter=0;fontSize=11;startArrow=none;startFill=0;endArrow=classic;endFill=1;" parent="1" source="AgFE_MD2gH8KqmMQmdO5-161" target="xG1OaEvJ-ssB0CjSIshb-19" edge="1">
                    <mxGeometry relative="1" as="geometry"/>
                </mxCell>
                <mxCell id="AgFE_MD2gH8KqmMQmdO5-161" value="" style="aspect=fixed;html=1;points=[];align=center;image;fontSize=12;image=img/lib/azure2/compute/Function_Apps.svg;" parent="1" vertex="1">
                    <mxGeometry x="357.5" y="446" width="50" height="44" as="geometry"/>
                </mxCell>
                <mxCell id="AgFE_MD2gH8KqmMQmdO5-165" value="" style="aspect=fixed;html=1;points=[];align=center;image;fontSize=12;image=img/lib/azure2/databases/Azure_Cosmos_DB.svg;labelBackgroundColor=none;" parent="1" vertex="1">
                    <mxGeometry x="211" y="61" width="28" height="28" as="geometry"/>
                </mxCell>
                <mxCell id="AgFE_MD2gH8KqmMQmdO5-169" value="Correspondence&lt;br&gt;service" style="text;html=1;align=center;verticalAlign=middle;resizable=0;points=[];autosize=1;strokeColor=none;fillColor=none;" parent="1" vertex="1">
                    <mxGeometry x="441.5" y="492" width="99" height="32" as="geometry"/>
                </mxCell>
                <mxCell id="AgFE_MD2gH8KqmMQmdO5-172" value="" style="aspect=fixed;html=1;points=[];align=center;image;fontSize=12;image=img/lib/azure2/databases/Azure_Cosmos_DB.svg;labelBackgroundColor=none;" parent="1" vertex="1">
                    <mxGeometry x="211" y="389" width="28" height="28" as="geometry"/>
                </mxCell>
                <mxCell id="AgFE_MD2gH8KqmMQmdO5-174" value="" style="rounded=1;whiteSpace=wrap;html=1;labelBackgroundColor=none;fontSize=11;fillColor=#d5e8d4;strokeColor=#82b366;" parent="1" vertex="1">
                    <mxGeometry x="168" y="645.92" width="265" height="155" as="geometry"/>
                </mxCell>
                <mxCell id="AgFE_MD2gH8KqmMQmdO5-176" style="edgeStyle=orthogonalEdgeStyle;rounded=0;orthogonalLoop=1;jettySize=auto;html=1;fontSize=11;startArrow=none;startFill=0;endArrow=classic;endFill=1;" parent="1" source="AgFE_MD2gH8KqmMQmdO5-177" target="AgFE_MD2gH8KqmMQmdO5-192" edge="1">
                    <mxGeometry relative="1" as="geometry"/>
                </mxCell>
                <mxCell id="AgFE_MD2gH8KqmMQmdO5-177" value="" style="aspect=fixed;html=1;points=[];align=center;image;fontSize=12;image=img/lib/azure2/compute/Function_Apps.svg;" parent="1" vertex="1">
                    <mxGeometry x="200" y="720" width="30.59" height="26.92" as="geometry"/>
                </mxCell>
                <mxCell id="AgFE_MD2gH8KqmMQmdO5-178" value="Graeme" style="shape=umlActor;verticalLabelPosition=bottom;verticalAlign=top;html=1;outlineConnect=0;" parent="1" vertex="1">
                    <mxGeometry x="30" y="702.92" width="30" height="60" as="geometry"/>
                </mxCell>
                <mxCell id="AgFE_MD2gH8KqmMQmdO5-179" style="edgeStyle=orthogonalEdgeStyle;rounded=0;orthogonalLoop=1;jettySize=auto;html=1;" parent="1" source="AgFE_MD2gH8KqmMQmdO5-180" target="AgFE_MD2gH8KqmMQmdO5-177" edge="1">
                    <mxGeometry relative="1" as="geometry"/>
                </mxCell>
                <mxCell id="AgFE_MD2gH8KqmMQmdO5-180" value="" style="verticalLabelPosition=bottom;verticalAlign=top;html=1;shadow=0;dashed=0;strokeWidth=1;shape=mxgraph.android.phone2;strokeColor=#c0c0c0;" parent="1" vertex="1">
                    <mxGeometry x="70" y="702.92" width="30" height="60" as="geometry"/>
                </mxCell>
                <mxCell id="AgFE_MD2gH8KqmMQmdO5-182" style="edgeStyle=orthogonalEdgeStyle;rounded=0;orthogonalLoop=1;jettySize=auto;html=1;entryX=0.481;entryY=0.408;entryDx=0;entryDy=0;entryPerimeter=0;fontSize=11;startArrow=none;startFill=0;endArrow=classic;endFill=1;" parent="1" source="AgFE_MD2gH8KqmMQmdO5-183" target="AgFE_MD2gH8KqmMQmdO5-187" edge="1">
                    <mxGeometry relative="1" as="geometry"/>
                </mxCell>
                <mxCell id="AgFE_MD2gH8KqmMQmdO5-183" value="" style="sketch=0;html=1;dashed=0;whitespace=wrap;fillColor=#2875E2;strokeColor=#ffffff;points=[[0.005,0.63,0],[0.1,0.2,0],[0.9,0.2,0],[0.5,0,0],[0.995,0.63,0],[0.72,0.99,0],[0.5,1,0],[0.28,0.99,0]];shape=mxgraph.kubernetes.icon;prIcon=api" parent="1" vertex="1">
                    <mxGeometry x="466" y="702.92" width="50" height="48" as="geometry"/>
                </mxCell>
                <mxCell id="AgFE_MD2gH8KqmMQmdO5-184" value="Wellbeing rating" style="text;html=1;align=center;verticalAlign=middle;resizable=0;points=[];autosize=1;strokeColor=none;fillColor=none;" parent="1" vertex="1">
                    <mxGeometry x="172" y="752.92" width="100" height="20" as="geometry"/>
                </mxCell>
                <mxCell id="AgFE_MD2gH8KqmMQmdO5-186" style="edgeStyle=orthogonalEdgeStyle;rounded=0;orthogonalLoop=1;jettySize=auto;html=1;entryX=0.5;entryY=0;entryDx=0;entryDy=0;entryPerimeter=0;" parent="1" source="AgFE_MD2gH8KqmMQmdO5-187" target="AgFE_MD2gH8KqmMQmdO5-178" edge="1">
                    <mxGeometry relative="1" as="geometry">
                        <Array as="points">
                            <mxPoint x="491" y="610.92"/>
                            <mxPoint x="45" y="610.92"/>
                        </Array>
                    </mxGeometry>
                </mxCell>
                <mxCell id="AgFE_MD2gH8KqmMQmdO5-187" value="" style="html=1;verticalLabelPosition=bottom;align=center;labelBackgroundColor=#ffffff;verticalAlign=top;strokeWidth=2;strokeColor=#0080F0;shadow=0;dashed=0;shape=mxgraph.ios7.icons.mail;" parent="1" vertex="1">
                    <mxGeometry x="476.17" y="639.92" width="30" height="16.5" as="geometry"/>
                </mxCell>
                <mxCell id="AgFE_MD2gH8KqmMQmdO5-189" style="edgeStyle=orthogonalEdgeStyle;rounded=0;orthogonalLoop=1;jettySize=auto;html=1;entryX=0.005;entryY=0.63;entryDx=0;entryDy=0;entryPerimeter=0;fontSize=11;startArrow=none;startFill=0;endArrow=classic;endFill=1;" parent="1" source="AgFE_MD2gH8KqmMQmdO5-193" target="AgFE_MD2gH8KqmMQmdO5-183" edge="1">
                    <mxGeometry relative="1" as="geometry">
                        <mxPoint x="400.23" y="733.9090909090908" as="sourcePoint"/>
                    </mxGeometry>
                </mxCell>
                <mxCell id="AgFE_MD2gH8KqmMQmdO5-191" value="Correspondence&lt;br&gt;service" style="text;html=1;align=center;verticalAlign=middle;resizable=0;points=[];autosize=1;strokeColor=none;fillColor=none;" parent="1" vertex="1">
                    <mxGeometry x="441.5" y="756.92" width="99" height="32" as="geometry"/>
                </mxCell>
                <mxCell id="AgFE_MD2gH8KqmMQmdO5-192" value="" style="aspect=fixed;html=1;points=[];align=center;image;fontSize=12;image=img/lib/azure2/databases/Azure_Cosmos_DB.svg;labelBackgroundColor=none;" parent="1" vertex="1">
                    <mxGeometry x="202" y="653.92" width="28" height="28" as="geometry"/>
                </mxCell>
                <mxCell id="AgFE_MD2gH8KqmMQmdO5-194" style="edgeStyle=orthogonalEdgeStyle;rounded=0;orthogonalLoop=1;jettySize=auto;html=1;fontSize=11;fontColor=default;startArrow=none;startFill=0;endArrow=classic;endFill=1;dashed=1;" parent="1" source="AgFE_MD2gH8KqmMQmdO5-193" target="AgFE_MD2gH8KqmMQmdO5-192" edge="1">
                    <mxGeometry relative="1" as="geometry">
                        <Array as="points">
                            <mxPoint x="316" y="668"/>
                        </Array>
                    </mxGeometry>
                </mxCell>
                <mxCell id="AgFE_MD2gH8KqmMQmdO5-193" value="Dispatcher" style="aspect=fixed;html=1;points=[];align=center;image;fontSize=12;image=img/lib/azure2/compute/Function_Apps.svg;labelBackgroundColor=none;fontColor=default;" parent="1" vertex="1">
                    <mxGeometry x="300.25" y="720" width="30.59" height="26.92" as="geometry"/>
                </mxCell>
                <mxCell id="AgFE_MD2gH8KqmMQmdO5-220" value="" style="rounded=1;whiteSpace=wrap;html=1;labelBackgroundColor=none;fontSize=11;fillColor=#d5e8d4;strokeColor=#82b366;" parent="1" vertex="1">
                    <mxGeometry x="133.01000000000002" y="1370.96" width="650.57" height="276" as="geometry"/>
                </mxCell>
                <mxCell id="AgFE_MD2gH8KqmMQmdO5-221" style="edgeStyle=orthogonalEdgeStyle;rounded=0;orthogonalLoop=1;jettySize=auto;html=1;fontSize=11;startArrow=none;startFill=0;endArrow=classic;endFill=1;" parent="1" source="AgFE_MD2gH8KqmMQmdO5-222" target="AgFE_MD2gH8KqmMQmdO5-228" edge="1">
                    <mxGeometry relative="1" as="geometry">
                        <mxPoint x="183.455" y="1540.04" as="sourcePoint"/>
                        <mxPoint x="184.205" y="1501.96" as="targetPoint"/>
                    </mxGeometry>
                </mxCell>
                <mxCell id="AgFE_MD2gH8KqmMQmdO5-222" value="" style="aspect=fixed;html=1;points=[];align=center;image;fontSize=12;image=img/lib/azure2/compute/Function_Apps.svg;" parent="1" vertex="1">
                    <mxGeometry x="166.17000000000004" y="1540.04" width="30.59" height="26.92" as="geometry"/>
                </mxCell>
                <mxCell id="AgFE_MD2gH8KqmMQmdO5-224" value="Wellbeing rating" style="text;html=1;align=center;verticalAlign=middle;resizable=0;points=[];autosize=1;strokeColor=none;fillColor=none;" parent="1" vertex="1">
                    <mxGeometry x="138.17000000000002" y="1572.96" width="100" height="20" as="geometry"/>
                </mxCell>
                <mxCell id="AgFE_MD2gH8KqmMQmdO5-228" value="" style="aspect=fixed;html=1;points=[];align=center;image;fontSize=12;image=img/lib/azure2/databases/Azure_Cosmos_DB.svg;labelBackgroundColor=none;" parent="1" vertex="1">
                    <mxGeometry x="167.47000000000006" y="1473.96" width="28" height="28" as="geometry"/>
                </mxCell>
                <mxCell id="AgFE_MD2gH8KqmMQmdO5-229" style="edgeStyle=orthogonalEdgeStyle;rounded=0;orthogonalLoop=1;jettySize=auto;html=1;fontSize=11;fontColor=default;startArrow=none;startFill=0;endArrow=classic;endFill=1;dashed=1;" parent="1" source="AgFE_MD2gH8KqmMQmdO5-231" target="AgFE_MD2gH8KqmMQmdO5-228" edge="1">
                    <mxGeometry relative="1" as="geometry">
                        <Array as="points">
                            <mxPoint x="278.15999999999997" y="1487.96"/>
                        </Array>
                    </mxGeometry>
                </mxCell>
                <mxCell id="AgFE_MD2gH8KqmMQmdO5-231" value="Dispatcher" style="aspect=fixed;html=1;points=[];align=center;image;fontSize=12;image=img/lib/azure2/compute/Function_Apps.svg;labelBackgroundColor=none;fontColor=default;" parent="1" vertex="1">
                    <mxGeometry x="262.57" y="1539.5" width="30.59" height="26.92" as="geometry"/>
                </mxCell>
                <mxCell id="AgFE_MD2gH8KqmMQmdO5-6" style="edgeStyle=orthogonalEdgeStyle;rounded=0;orthogonalLoop=1;jettySize=auto;html=1;" parent="1" source="AgFE_MD2gH8KqmMQmdO5-7" target="AgFE_MD2gH8KqmMQmdO5-222" edge="1">
                    <mxGeometry relative="1" as="geometry">
                        <mxPoint x="167.17000000000016" y="1550.96" as="targetPoint"/>
                        <Array as="points"/>
                    </mxGeometry>
                </mxCell>
                <mxCell id="AgFE_MD2gH8KqmMQmdO5-40" value="Durable Function" style="rounded=1;whiteSpace=wrap;html=1;fillColor=#dae8fc;strokeColor=#6c8ebf;verticalAlign=top;align=center;" parent="1" vertex="1">
                    <mxGeometry x="361.5" y="1470.96" width="405.08" height="152" as="geometry"/>
                </mxCell>
                <mxCell id="PmaRed3diDtcTDXIdMSH-47" style="edgeStyle=orthogonalEdgeStyle;rounded=0;orthogonalLoop=1;jettySize=auto;html=1;fontSize=10;startArrow=none;startFill=0;endArrow=classic;endFill=1;" parent="1" source="AgFE_MD2gH8KqmMQmdO5-32" target="AgFE_MD2gH8KqmMQmdO5-282" edge="1">
                    <mxGeometry relative="1" as="geometry"/>
                </mxCell>
                <mxCell id="AgFE_MD2gH8KqmMQmdO5-32" value="Send Email" style="aspect=fixed;html=1;points=[];align=center;image;fontSize=12;image=img/lib/azure2/compute/Function_Apps.svg;labelBackgroundColor=none;" parent="1" vertex="1">
                    <mxGeometry x="460.74" y="1536.9567768595043" width="36.36" height="32" as="geometry"/>
                </mxCell>
                <mxCell id="AgFE_MD2gH8KqmMQmdO5-238" style="edgeStyle=orthogonalEdgeStyle;rounded=0;orthogonalLoop=1;jettySize=auto;html=1;fontSize=11;fontColor=default;startArrow=none;startFill=0;endArrow=classic;endFill=1;" parent="1" source="AgFE_MD2gH8KqmMQmdO5-237" target="AgFE_MD2gH8KqmMQmdO5-32" edge="1">
                    <mxGeometry relative="1" as="geometry"/>
                </mxCell>
                <mxCell id="AgFE_MD2gH8KqmMQmdO5-237" value="Durable&lt;br&gt;Function&lt;br&gt;Orchestrator" style="aspect=fixed;html=1;points=[];align=center;image;fontSize=12;image=img/lib/azure2/compute/Function_Apps.svg;labelBackgroundColor=none;" parent="1" vertex="1">
                    <mxGeometry x="381.14" y="1537.4967768595043" width="36.36" height="32" as="geometry"/>
                </mxCell>
                <mxCell id="AgFE_MD2gH8KqmMQmdO5-240" style="edgeStyle=orthogonalEdgeStyle;rounded=0;orthogonalLoop=1;jettySize=auto;html=1;fontSize=11;fontColor=default;startArrow=none;startFill=0;endArrow=classic;endFill=1;" parent="1" source="AgFE_MD2gH8KqmMQmdO5-231" target="AgFE_MD2gH8KqmMQmdO5-237" edge="1">
                    <mxGeometry relative="1" as="geometry">
                        <mxPoint x="366.40000000000003" y="1554.050909090909" as="sourcePoint"/>
                    </mxGeometry>
                </mxCell>
                <mxCell id="AgFE_MD2gH8KqmMQmdO5-241" style="edgeStyle=orthogonalEdgeStyle;rounded=0;orthogonalLoop=1;jettySize=auto;html=1;entryX=0.5;entryY=1;entryDx=0;entryDy=0;entryPerimeter=0;fontSize=11;fontColor=default;startArrow=none;startFill=0;endArrow=classic;endFill=1;" parent="1" source="AgFE_MD2gH8KqmMQmdO5-32" target="AgFE_MD2gH8KqmMQmdO5-33" edge="1">
                    <mxGeometry relative="1" as="geometry">
                        <Array as="points">
                            <mxPoint x="479.16" y="1418.96"/>
                            <mxPoint x="342.16" y="1418.96"/>
                        </Array>
                    </mxGeometry>
                </mxCell>
                <mxCell id="AgFE_MD2gH8KqmMQmdO5-279" value="" style="shape=image;verticalLabelPosition=bottom;labelBackgroundColor=default;verticalAlign=top;aspect=fixed;imageAspect=0;image=img/lib/mscae/Service_Bus.svg;" parent="1" vertex="1">
                    <mxGeometry x="422.42000000000013" y="1289.96" width="38" height="38" as="geometry"/>
                </mxCell>
                <mxCell id="AgFE_MD2gH8KqmMQmdO5-286" style="edgeStyle=orthogonalEdgeStyle;rounded=0;orthogonalLoop=1;jettySize=auto;html=1;fontSize=11;fontColor=default;startArrow=none;startFill=0;endArrow=classic;endFill=1;" parent="1" source="AgFE_MD2gH8KqmMQmdO5-282" target="PmaRed3diDtcTDXIdMSH-43" edge="1">
                    <mxGeometry relative="1" as="geometry">
                        <mxPoint x="650.93" y="1553.9967768595043" as="targetPoint"/>
                    </mxGeometry>
                </mxCell>
                <mxCell id="AgFE_MD2gH8KqmMQmdO5-287" style="edgeStyle=orthogonalEdgeStyle;rounded=0;orthogonalLoop=1;jettySize=auto;html=1;fontSize=11;fontColor=default;startArrow=none;startFill=0;endArrow=classic;endFill=1;dashed=1;" parent="1" source="AgFE_MD2gH8KqmMQmdO5-282" target="AgFE_MD2gH8KqmMQmdO5-40" edge="1">
                    <mxGeometry relative="1" as="geometry"/>
                </mxCell>
                <mxCell id="AgFE_MD2gH8KqmMQmdO5-282" value="Wait for&amp;nbsp;&lt;br&gt;Confirmation" style="aspect=fixed;html=1;points=[];align=center;image;fontSize=12;image=img/lib/azure2/compute/Function_Apps.svg;labelBackgroundColor=none;" parent="1" vertex="1">
                    <mxGeometry x="545.39" y="1536.9967768595043" width="36.36" height="32" as="geometry"/>
                </mxCell>
                <mxCell id="AgFE_MD2gH8KqmMQmdO5-284" style="edgeStyle=orthogonalEdgeStyle;rounded=0;orthogonalLoop=1;jettySize=auto;html=1;dashed=1;fontSize=11;fontColor=default;startArrow=none;startFill=0;endArrow=classic;endFill=1;" parent="1" source="AgFE_MD2gH8KqmMQmdO5-283" target="AgFE_MD2gH8KqmMQmdO5-279" edge="1">
                    <mxGeometry relative="1" as="geometry">
                        <Array as="points">
                            <mxPoint x="566.16" y="1309.96"/>
                        </Array>
                    </mxGeometry>
                </mxCell>
                <mxCell id="AgFE_MD2gH8KqmMQmdO5-285" style="edgeStyle=orthogonalEdgeStyle;rounded=0;orthogonalLoop=1;jettySize=auto;html=1;dashed=1;fontSize=11;fontColor=default;startArrow=none;startFill=0;endArrow=classic;endFill=1;" parent="1" source="AgFE_MD2gH8KqmMQmdO5-283" target="AgFE_MD2gH8KqmMQmdO5-40" edge="1">
                    <mxGeometry relative="1" as="geometry"/>
                </mxCell>
                <mxCell id="AgFE_MD2gH8KqmMQmdO5-283" value="Correspondence&amp;nbsp;&lt;br&gt;Service Trigger" style="aspect=fixed;html=1;points=[];align=center;image;fontSize=12;image=img/lib/azure2/compute/Function_Apps.svg;labelBackgroundColor=none;" parent="1" vertex="1">
                    <mxGeometry x="550.02" y="1384.96" width="31.73" height="27.92" as="geometry"/>
                </mxCell>
                <mxCell id="AgFE_MD2gH8KqmMQmdO5-290" value="Suhas" style="shape=umlActor;verticalLabelPosition=bottom;verticalAlign=top;html=1;outlineConnect=0;" parent="1" vertex="1">
                    <mxGeometry x="20.220000000000006" y="2251.75" width="30" height="60" as="geometry"/>
                </mxCell>
                <mxCell id="AgFE_MD2gH8KqmMQmdO5-291" value="" style="verticalLabelPosition=bottom;verticalAlign=top;html=1;shadow=0;dashed=0;strokeWidth=1;shape=mxgraph.android.phone2;strokeColor=#c0c0c0;" parent="1" vertex="1">
                    <mxGeometry x="57.65000000000001" y="2251.75" width="30" height="60" as="geometry"/>
                </mxCell>
                <mxCell id="AgFE_MD2gH8KqmMQmdO5-292" style="edgeStyle=orthogonalEdgeStyle;rounded=0;orthogonalLoop=1;jettySize=auto;html=1;" parent="1" source="AgFE_MD2gH8KqmMQmdO5-294" target="AgFE_MD2gH8KqmMQmdO5-291" edge="1">
                    <mxGeometry relative="1" as="geometry"/>
                </mxCell>
                <mxCell id="AgFE_MD2gH8KqmMQmdO5-293" style="edgeStyle=orthogonalEdgeStyle;rounded=0;orthogonalLoop=1;jettySize=auto;html=1;entryX=0.005;entryY=0.63;entryDx=0;entryDy=0;entryPerimeter=0;fontSize=11;fontColor=default;startArrow=classic;startFill=1;endArrow=none;endFill=0;" parent="1" source="AgFE_MD2gH8KqmMQmdO5-294" target="AgFE_MD2gH8KqmMQmdO5-299" edge="1">
                    <mxGeometry relative="1" as="geometry"/>
                </mxCell>
                <mxCell id="AgFE_MD2gH8KqmMQmdO5-294" value="" style="html=1;verticalLabelPosition=bottom;align=center;labelBackgroundColor=#ffffff;verticalAlign=top;strokeWidth=2;strokeColor=#0080F0;shadow=0;dashed=0;shape=mxgraph.ios7.icons.mail;" parent="1" vertex="1">
                    <mxGeometry x="173.06" y="2035.75" width="30" height="16.5" as="geometry"/>
                </mxCell>
                <mxCell id="AgFE_MD2gH8KqmMQmdO5-450" style="edgeStyle=orthogonalEdgeStyle;rounded=0;orthogonalLoop=1;jettySize=auto;html=1;dashed=1;fontSize=6;fontColor=default;startArrow=none;startFill=0;endArrow=classic;endFill=1;" parent="1" source="AgFE_MD2gH8KqmMQmdO5-296" target="AgFE_MD2gH8KqmMQmdO5-330" edge="1">
                    <mxGeometry relative="1" as="geometry">
                        <Array as="points">
                            <mxPoint x="520" y="2109"/>
                            <mxPoint x="520" y="2109"/>
                        </Array>
                    </mxGeometry>
                </mxCell>
                <mxCell id="AgFE_MD2gH8KqmMQmdO5-296" value="" style="sketch=0;html=1;dashed=0;whitespace=wrap;fillColor=#2875E2;strokeColor=#ffffff;points=[[0.005,0.63,0],[0.1,0.2,0],[0.9,0.2,0],[0.5,0,0],[0.995,0.63,0],[0.72,0.99,0],[0.5,1,0],[0.28,0.99,0]];shape=mxgraph.kubernetes.icon;prIcon=api" parent="1" vertex="1">
                    <mxGeometry x="572.2900000000001" y="2071.75" width="50" height="48" as="geometry"/>
                </mxCell>
                <mxCell id="AgFE_MD2gH8KqmMQmdO5-297" value="HR Service&lt;br&gt;Listens for both events&lt;br&gt;then reacts" style="text;html=1;align=center;verticalAlign=middle;resizable=0;points=[];autosize=1;strokeColor=none;fillColor=none;" parent="1" vertex="1">
                    <mxGeometry x="558.8099999999998" y="2124" width="131" height="46" as="geometry"/>
                </mxCell>
                <mxCell id="AgFE_MD2gH8KqmMQmdO5-298" style="edgeStyle=orthogonalEdgeStyle;rounded=0;orthogonalLoop=1;jettySize=auto;html=1;fontSize=11;fontColor=default;startArrow=none;startFill=0;endArrow=classic;endFill=1;" parent="1" source="AgFE_MD2gH8KqmMQmdO5-299" target="AgFE_MD2gH8KqmMQmdO5-333" edge="1">
                    <mxGeometry relative="1" as="geometry">
                        <mxPoint x="409.06" y="2038.7499999999995" as="targetPoint"/>
                    </mxGeometry>
                </mxCell>
                <mxCell id="AgFE_MD2gH8KqmMQmdO5-332" style="edgeStyle=orthogonalEdgeStyle;rounded=0;orthogonalLoop=1;jettySize=auto;html=1;dashed=1;fontSize=11;fontColor=default;startArrow=none;startFill=0;endArrow=classic;endFill=1;" parent="1" source="AgFE_MD2gH8KqmMQmdO5-299" target="AgFE_MD2gH8KqmMQmdO5-330" edge="1">
                    <mxGeometry relative="1" as="geometry">
                        <Array as="points">
                            <mxPoint x="290" y="2109"/>
                        </Array>
                    </mxGeometry>
                </mxCell>
                <mxCell id="AgFE_MD2gH8KqmMQmdO5-299" value="" style="sketch=0;html=1;dashed=0;whitespace=wrap;fillColor=#2875E2;strokeColor=#ffffff;points=[[0.005,0.63,0],[0.1,0.2,0],[0.9,0.2,0],[0.5,0,0],[0.995,0.63,0],[0.72,0.99,0],[0.5,1,0],[0.28,0.99,0]];shape=mxgraph.kubernetes.icon;prIcon=api" parent="1" vertex="1">
                    <mxGeometry x="258.9999999999999" y="2013.75" width="50" height="48" as="geometry"/>
                </mxCell>
                <mxCell id="AgFE_MD2gH8KqmMQmdO5-300" value="" style="rounded=1;whiteSpace=wrap;html=1;labelBackgroundColor=none;fontSize=11;fillColor=#d5e8d4;strokeColor=#82b366;" parent="1" vertex="1">
                    <mxGeometry x="119.65" y="2182.75" width="342.14" height="171" as="geometry"/>
                </mxCell>
                <mxCell id="AgFE_MD2gH8KqmMQmdO5-301" style="edgeStyle=orthogonalEdgeStyle;rounded=0;orthogonalLoop=1;jettySize=auto;html=1;fontSize=11;startArrow=none;startFill=0;endArrow=classic;endFill=1;" parent="1" source="AgFE_MD2gH8KqmMQmdO5-302" target="AgFE_MD2gH8KqmMQmdO5-308" edge="1">
                    <mxGeometry relative="1" as="geometry">
                        <mxPoint x="170.095" y="2268.83" as="sourcePoint"/>
                        <mxPoint x="170.845" y="2230.75" as="targetPoint"/>
                    </mxGeometry>
                </mxCell>
                <mxCell id="AgFE_MD2gH8KqmMQmdO5-302" value="" style="aspect=fixed;html=1;points=[];align=center;image;fontSize=12;image=img/lib/azure2/compute/Function_Apps.svg;" parent="1" vertex="1">
                    <mxGeometry x="152.81000000000003" y="2268.83" width="30.59" height="26.92" as="geometry"/>
                </mxCell>
                <mxCell id="AgFE_MD2gH8KqmMQmdO5-304" value="Wellbeing rating" style="text;html=1;align=center;verticalAlign=middle;resizable=0;points=[];autosize=1;strokeColor=none;fillColor=none;" parent="1" vertex="1">
                    <mxGeometry x="124.81" y="2301.75" width="100" height="20" as="geometry"/>
                </mxCell>
                <mxCell id="AgFE_MD2gH8KqmMQmdO5-308" value="" style="aspect=fixed;html=1;points=[];align=center;image;fontSize=12;image=img/lib/azure2/databases/Azure_Cosmos_DB.svg;labelBackgroundColor=none;" parent="1" vertex="1">
                    <mxGeometry x="154.11000000000004" y="2202.75" width="28" height="28" as="geometry"/>
                </mxCell>
                <mxCell id="AgFE_MD2gH8KqmMQmdO5-309" style="edgeStyle=orthogonalEdgeStyle;rounded=0;orthogonalLoop=1;jettySize=auto;html=1;fontSize=11;fontColor=default;startArrow=none;startFill=0;endArrow=classic;endFill=1;dashed=1;" parent="1" source="AgFE_MD2gH8KqmMQmdO5-311" target="AgFE_MD2gH8KqmMQmdO5-308" edge="1">
                    <mxGeometry relative="1" as="geometry">
                        <Array as="points">
                            <mxPoint x="288.79" y="2216.75"/>
                        </Array>
                    </mxGeometry>
                </mxCell>
                <mxCell id="AgFE_MD2gH8KqmMQmdO5-311" value="Dispatcher" style="aspect=fixed;html=1;points=[];align=center;image;fontSize=12;image=img/lib/azure2/compute/Function_Apps.svg;labelBackgroundColor=none;fontColor=default;" parent="1" vertex="1">
                    <mxGeometry x="273.04" y="2265.75" width="30.59" height="26.92" as="geometry"/>
                </mxCell>
                <mxCell id="AgFE_MD2gH8KqmMQmdO5-312" style="edgeStyle=orthogonalEdgeStyle;rounded=0;orthogonalLoop=1;jettySize=auto;html=1;" parent="1" source="AgFE_MD2gH8KqmMQmdO5-291" target="AgFE_MD2gH8KqmMQmdO5-302" edge="1">
                    <mxGeometry relative="1" as="geometry">
                        <mxPoint x="153.81000000000014" y="2279.75" as="targetPoint"/>
                        <Array as="points"/>
                    </mxGeometry>
                </mxCell>
                <mxCell id="AgFE_MD2gH8KqmMQmdO5-320" style="edgeStyle=orthogonalEdgeStyle;rounded=0;orthogonalLoop=1;jettySize=auto;html=1;fontSize=11;fontColor=default;startArrow=none;startFill=0;endArrow=classic;endFill=1;" parent="1" source="AgFE_MD2gH8KqmMQmdO5-311" target="AgFE_MD2gH8KqmMQmdO5-330" edge="1">
                    <mxGeometry relative="1" as="geometry">
                        <mxPoint x="374.04000000000025" y="2282.75" as="sourcePoint"/>
                        <mxPoint x="413.1999999999999" y="2282.2738095238096" as="targetPoint"/>
                    </mxGeometry>
                </mxCell>
                <mxCell id="AgFE_MD2gH8KqmMQmdO5-330" value="" style="shape=image;verticalLabelPosition=bottom;labelBackgroundColor=default;verticalAlign=top;aspect=fixed;imageAspect=0;image=img/lib/mscae/Service_Bus.svg;" parent="1" vertex="1">
                    <mxGeometry x="406.7000000000001" y="2090" width="38" height="38" as="geometry"/>
                </mxCell>
                <mxCell id="AgFE_MD2gH8KqmMQmdO5-331" value="EmployeeWellbeingRecorded&lt;br&gt;(Topic)" style="text;html=1;align=center;verticalAlign=middle;resizable=0;points=[];autosize=1;strokeColor=none;fillColor=none;fontSize=11;fontColor=default;" parent="1" vertex="1">
                    <mxGeometry x="368.7900000000001" y="2140" width="155" height="30" as="geometry"/>
                </mxCell>
                <mxCell id="AgFE_MD2gH8KqmMQmdO5-336" style="edgeStyle=orthogonalEdgeStyle;rounded=0;orthogonalLoop=1;jettySize=auto;html=1;entryX=0.5;entryY=0;entryDx=0;entryDy=0;entryPerimeter=0;dashed=1;fontSize=11;fontColor=default;startArrow=classic;startFill=1;endArrow=none;endFill=0;" parent="1" source="AgFE_MD2gH8KqmMQmdO5-333" target="AgFE_MD2gH8KqmMQmdO5-296" edge="1">
                    <mxGeometry relative="1" as="geometry"/>
                </mxCell>
                <mxCell id="AgFE_MD2gH8KqmMQmdO5-333" value="" style="shape=image;verticalLabelPosition=bottom;labelBackgroundColor=default;verticalAlign=top;aspect=fixed;imageAspect=0;image=img/lib/mscae/Service_Bus.svg;" parent="1" vertex="1">
                    <mxGeometry x="408.79000000000013" y="2018.75" width="38" height="38" as="geometry"/>
                </mxCell>
                <mxCell id="AgFE_MD2gH8KqmMQmdO5-334" value="EmployeeCorrespondenceSent topic&lt;br&gt;type: Wellbeing" style="text;html=1;align=center;verticalAlign=middle;resizable=0;points=[];autosize=1;strokeColor=none;fillColor=none;fontSize=11;fontColor=default;" parent="1" vertex="1">
                    <mxGeometry x="334.79" y="1983.75" width="189" height="30" as="geometry"/>
                </mxCell>
                <mxCell id="AgFE_MD2gH8KqmMQmdO5-342" value="" style="aspect=fixed;html=1;points=[];align=center;image;fontSize=12;image=img/lib/azure2/databases/Azure_Cosmos_DB.svg;labelBackgroundColor=none;" parent="1" vertex="1">
                    <mxGeometry x="161.29000000000005" y="2644.84" width="28" height="28" as="geometry"/>
                </mxCell>
                <mxCell id="AgFE_MD2gH8KqmMQmdO5-354" value="HR&lt;br&gt;Service" style="rounded=1;whiteSpace=wrap;html=1;labelBackgroundColor=none;fontSize=11;fillColor=#dae8fc;strokeColor=#6c8ebf;verticalAlign=top;" parent="1" vertex="1">
                    <mxGeometry x="471.85" y="2937" width="108.23" height="111" as="geometry"/>
                </mxCell>
                <mxCell id="AgFE_MD2gH8KqmMQmdO5-355" value="Correspondence&lt;br&gt;Service" style="rounded=1;whiteSpace=wrap;html=1;labelBackgroundColor=none;fontSize=11;fillColor=#dae8fc;strokeColor=#6c8ebf;verticalAlign=top;" parent="1" vertex="1">
                    <mxGeometry x="337.91" y="2937" width="102" height="111" as="geometry"/>
                </mxCell>
                <mxCell id="AgFE_MD2gH8KqmMQmdO5-356" value="" style="rounded=1;whiteSpace=wrap;html=1;labelBackgroundColor=none;fontSize=11;fillColor=#d5e8d4;strokeColor=#82b366;" parent="1" vertex="1">
                    <mxGeometry x="114.97" y="3098" width="195.03" height="190" as="geometry"/>
                </mxCell>
                <mxCell id="AgFE_MD2gH8KqmMQmdO5-358" style="edgeStyle=orthogonalEdgeStyle;rounded=0;orthogonalLoop=1;jettySize=auto;html=1;fontSize=11;fontColor=default;startArrow=none;startFill=0;endArrow=classic;endFill=1;" parent="1" source="AgFE_MD2gH8KqmMQmdO5-359" target="AgFE_MD2gH8KqmMQmdO5-379" edge="1">
                    <mxGeometry relative="1" as="geometry"/>
                </mxCell>
                <mxCell id="AgFE_MD2gH8KqmMQmdO5-359" value="" style="aspect=fixed;html=1;points=[];align=center;image;fontSize=12;image=img/lib/azure2/compute/Function_Apps.svg;" parent="1" vertex="1">
                    <mxGeometry x="142.97" y="3167" width="50" height="44" as="geometry"/>
                </mxCell>
                <mxCell id="AgFE_MD2gH8KqmMQmdO5-360" value="Suhas" style="shape=umlActor;verticalLabelPosition=bottom;verticalAlign=top;html=1;outlineConnect=0;" parent="1" vertex="1">
                    <mxGeometry x="13.970000000000002" y="3159" width="30" height="60" as="geometry"/>
                </mxCell>
                <mxCell id="AgFE_MD2gH8KqmMQmdO5-361" style="edgeStyle=orthogonalEdgeStyle;rounded=0;orthogonalLoop=1;jettySize=auto;html=1;" parent="1" source="AgFE_MD2gH8KqmMQmdO5-362" target="AgFE_MD2gH8KqmMQmdO5-359" edge="1">
                    <mxGeometry relative="1" as="geometry"/>
                </mxCell>
                <mxCell id="AgFE_MD2gH8KqmMQmdO5-362" value="" style="verticalLabelPosition=bottom;verticalAlign=top;html=1;shadow=0;dashed=0;strokeWidth=1;shape=mxgraph.android.phone2;strokeColor=#c0c0c0;" parent="1" vertex="1">
                    <mxGeometry x="53.97" y="3159" width="30" height="60" as="geometry"/>
                </mxCell>
                <mxCell id="AgFE_MD2gH8KqmMQmdO5-363" value="Wellbeing &lt;br&gt;rating" style="text;html=1;align=center;verticalAlign=middle;resizable=0;points=[];autosize=1;strokeColor=none;fillColor=none;fontSize=11;" parent="1" vertex="1">
                    <mxGeometry x="136.97" y="3215" width="58" height="30" as="geometry"/>
                </mxCell>
                <mxCell id="AgFE_MD2gH8KqmMQmdO5-364" style="edgeStyle=orthogonalEdgeStyle;rounded=0;orthogonalLoop=1;jettySize=auto;html=1;" parent="1" source="AgFE_MD2gH8KqmMQmdO5-365" target="AgFE_MD2gH8KqmMQmdO5-362" edge="1">
                    <mxGeometry relative="1" as="geometry"/>
                </mxCell>
                <mxCell id="AgFE_MD2gH8KqmMQmdO5-365" value="" style="html=1;verticalLabelPosition=bottom;align=center;labelBackgroundColor=#ffffff;verticalAlign=top;strokeWidth=2;strokeColor=#0080F0;shadow=0;dashed=0;shape=mxgraph.ios7.icons.mail;" parent="1" vertex="1">
                    <mxGeometry x="142.97" y="2998.75" width="30" height="16.5" as="geometry"/>
                </mxCell>
                <mxCell id="AgFE_MD2gH8KqmMQmdO5-366" value="" style="sketch=0;html=1;dashed=0;whitespace=wrap;fillColor=#2875E2;strokeColor=#ffffff;points=[[0.005,0.63,0],[0.1,0.2,0],[0.9,0.2,0],[0.5,0,0],[0.995,0.63,0],[0.72,0.99,0],[0.5,1,0],[0.28,0.99,0]];shape=mxgraph.kubernetes.icon;prIcon=api" parent="1" vertex="1">
                    <mxGeometry x="495.99000000000024" y="2979.17" width="50" height="48" as="geometry"/>
                </mxCell>
                <mxCell id="AgFE_MD2gH8KqmMQmdO5-368" style="edgeStyle=orthogonalEdgeStyle;rounded=0;orthogonalLoop=1;jettySize=auto;html=1;entryX=1.008;entryY=0.559;entryDx=0;entryDy=0;entryPerimeter=0;" parent="1" source="AgFE_MD2gH8KqmMQmdO5-370" target="AgFE_MD2gH8KqmMQmdO5-365" edge="1">
                    <mxGeometry relative="1" as="geometry"/>
                </mxCell>
                <mxCell id="AgFE_MD2gH8KqmMQmdO5-393" style="edgeStyle=orthogonalEdgeStyle;rounded=0;orthogonalLoop=1;jettySize=auto;html=1;fontSize=11;fontColor=default;startArrow=none;startFill=0;endArrow=classic;endFill=1;dashed=1;" parent="1" source="AgFE_MD2gH8KqmMQmdO5-370" target="AgFE_MD2gH8KqmMQmdO5-391" edge="1">
                    <mxGeometry relative="1" as="geometry"/>
                </mxCell>
                <mxCell id="AgFE_MD2gH8KqmMQmdO5-396" style="edgeStyle=orthogonalEdgeStyle;rounded=0;orthogonalLoop=1;jettySize=auto;html=1;fontSize=11;fontColor=default;startArrow=none;startFill=0;endArrow=classic;endFill=1;" parent="1" source="AgFE_MD2gH8KqmMQmdO5-370" target="AgFE_MD2gH8KqmMQmdO5-394" edge="1">
                    <mxGeometry relative="1" as="geometry">
                        <Array as="points">
                            <mxPoint x="407.03000000000003" y="3058"/>
                            <mxPoint x="444.03000000000003" y="3058"/>
                        </Array>
                    </mxGeometry>
                </mxCell>
                <mxCell id="AgFE_MD2gH8KqmMQmdO5-370" value="" style="sketch=0;html=1;dashed=0;whitespace=wrap;fillColor=#2875E2;strokeColor=#ffffff;points=[[0.005,0.63,0],[0.1,0.2,0],[0.9,0.2,0],[0.5,0,0],[0.995,0.63,0],[0.72,0.99,0],[0.5,1,0],[0.28,0.99,0]];shape=mxgraph.kubernetes.icon;prIcon=api" parent="1" vertex="1">
                    <mxGeometry x="366.0300000000001" y="2984" width="50" height="48" as="geometry"/>
                </mxCell>
                <mxCell id="AgFE_MD2gH8KqmMQmdO5-379" value="" style="aspect=fixed;html=1;points=[];align=center;image;fontSize=12;image=img/lib/azure2/databases/Azure_Cosmos_DB.svg;labelBackgroundColor=none;" parent="1" vertex="1">
                    <mxGeometry x="153.97000000000006" y="3101.84" width="28" height="28" as="geometry"/>
                </mxCell>
                <mxCell id="AgFE_MD2gH8KqmMQmdO5-380" value="Process Manager" style="rounded=1;whiteSpace=wrap;html=1;labelBackgroundColor=none;fontSize=11;fillColor=#e1d5e7;strokeColor=#9673a6;verticalAlign=bottom;" parent="1" vertex="1">
                    <mxGeometry x="343.03000000000003" y="3148" width="244" height="140" as="geometry"/>
                </mxCell>
                <mxCell id="AgFE_MD2gH8KqmMQmdO5-381" value="" style="aspect=fixed;html=1;points=[];align=center;image;fontSize=12;image=img/lib/azure2/databases/SQL_Database.svg;labelBackgroundColor=none;" parent="1" vertex="1">
                    <mxGeometry x="380.32" y="3239" width="19.68" height="26" as="geometry"/>
                </mxCell>
                <mxCell id="AgFE_MD2gH8KqmMQmdO5-392" style="edgeStyle=orthogonalEdgeStyle;rounded=0;orthogonalLoop=1;jettySize=auto;html=1;fontSize=11;fontColor=default;startArrow=none;startFill=0;endArrow=classic;endFill=1;" parent="1" source="AgFE_MD2gH8KqmMQmdO5-382" target="AgFE_MD2gH8KqmMQmdO5-391" edge="1">
                    <mxGeometry relative="1" as="geometry"/>
                </mxCell>
                <mxCell id="PmaRed3diDtcTDXIdMSH-65" style="edgeStyle=orthogonalEdgeStyle;rounded=0;orthogonalLoop=1;jettySize=auto;html=1;fontSize=10;startArrow=none;startFill=0;endArrow=classic;endFill=1;" parent="1" source="AgFE_MD2gH8KqmMQmdO5-382" target="AgFE_MD2gH8KqmMQmdO5-381" edge="1">
                    <mxGeometry relative="1" as="geometry"/>
                </mxCell>
                <mxCell id="AgFE_MD2gH8KqmMQmdO5-382" value="" style="aspect=fixed;html=1;points=[];align=center;image;fontSize=12;image=img/lib/azure2/compute/Function_Apps.svg;" parent="1" vertex="1">
                    <mxGeometry x="376.4000000000001" y="3190.86" width="27.43" height="24.14" as="geometry"/>
                </mxCell>
                <mxCell id="AgFE_MD2gH8KqmMQmdO5-397" style="edgeStyle=orthogonalEdgeStyle;rounded=0;orthogonalLoop=1;jettySize=auto;html=1;dashed=1;fontSize=11;fontColor=default;startArrow=none;startFill=0;endArrow=classic;endFill=1;" parent="1" source="AgFE_MD2gH8KqmMQmdO5-382" target="AgFE_MD2gH8KqmMQmdO5-394" edge="1">
                    <mxGeometry relative="1" as="geometry">
                        <mxPoint x="443.7931034482758" y="3173.26" as="sourcePoint"/>
                        <Array as="points">
                            <mxPoint x="400" y="3160"/>
                            <mxPoint x="444" y="3160"/>
                        </Array>
                    </mxGeometry>
                </mxCell>
                <mxCell id="AgFE_MD2gH8KqmMQmdO5-400" style="edgeStyle=orthogonalEdgeStyle;rounded=0;orthogonalLoop=1;jettySize=auto;html=1;fontSize=11;fontColor=default;startArrow=none;startFill=0;endArrow=classic;endFill=1;entryX=1;entryY=0.5;entryDx=0;entryDy=0;" parent="1" source="AgFE_MD2gH8KqmMQmdO5-382" target="AgFE_MD2gH8KqmMQmdO5-398" edge="1">
                    <mxGeometry relative="1" as="geometry">
                        <Array as="points">
                            <mxPoint x="522" y="3203"/>
                            <mxPoint x="522" y="3112"/>
                        </Array>
                        <mxPoint x="457.5300000000002" y="3185.3793103448274" as="sourcePoint"/>
                    </mxGeometry>
                </mxCell>
                <mxCell id="AgFE_MD2gH8KqmMQmdO5-391" value="" style="shape=image;verticalLabelPosition=bottom;labelBackgroundColor=default;verticalAlign=top;aspect=fixed;imageAspect=0;image=img/lib/mscae/Service_Bus.svg;rotation=90;" parent="1" vertex="1">
                    <mxGeometry x="378.8499999999999" y="3088" width="23.83" height="23.83" as="geometry"/>
                </mxCell>
                <mxCell id="AgFE_MD2gH8KqmMQmdO5-394" value="" style="shape=image;verticalLabelPosition=bottom;labelBackgroundColor=default;verticalAlign=top;aspect=fixed;imageAspect=0;image=img/lib/mscae/Service_Bus.svg;rotation=90;" parent="1" vertex="1">
                    <mxGeometry x="431.69999999999993" y="3088" width="23.83" height="23.83" as="geometry"/>
                </mxCell>
                <mxCell id="AgFE_MD2gH8KqmMQmdO5-401" style="edgeStyle=orthogonalEdgeStyle;rounded=0;orthogonalLoop=1;jettySize=auto;html=1;entryX=0.5;entryY=1;entryDx=0;entryDy=0;entryPerimeter=0;dashed=1;fontSize=11;fontColor=default;startArrow=classic;startFill=1;endArrow=none;endFill=0;" parent="1" source="AgFE_MD2gH8KqmMQmdO5-398" target="AgFE_MD2gH8KqmMQmdO5-366" edge="1">
                    <mxGeometry relative="1" as="geometry"/>
                </mxCell>
                <mxCell id="AgFE_MD2gH8KqmMQmdO5-398" value="" style="shape=image;verticalLabelPosition=bottom;labelBackgroundColor=default;verticalAlign=top;aspect=fixed;imageAspect=0;image=img/lib/mscae/Service_Bus.svg;rotation=90;" parent="1" vertex="1">
                    <mxGeometry x="509.86999999999995" y="3088" width="23.83" height="23.83" as="geometry"/>
                </mxCell>
                <mxCell id="AgFE_MD2gH8KqmMQmdO5-407" value="" style="rounded=1;whiteSpace=wrap;html=1;labelBackgroundColor=none;fontSize=11;fillColor=#d5e8d4;strokeColor=#82b366;" parent="1" vertex="1">
                    <mxGeometry x="117.13" y="3398" width="226.66" height="206.75" as="geometry"/>
                </mxCell>
                <mxCell id="AgFE_MD2gH8KqmMQmdO5-440" style="edgeStyle=orthogonalEdgeStyle;rounded=0;orthogonalLoop=1;jettySize=auto;html=1;dashed=1;fontSize=6;fontColor=default;startArrow=none;startFill=0;endArrow=classic;endFill=1;" parent="1" source="AgFE_MD2gH8KqmMQmdO5-409" target="AgFE_MD2gH8KqmMQmdO5-422" edge="1">
                    <mxGeometry relative="1" as="geometry">
                        <Array as="points">
                            <mxPoint x="208.79" y="3447.75"/>
                            <mxPoint x="208.79" y="3447.75"/>
                        </Array>
                    </mxGeometry>
                </mxCell>
                <mxCell id="AgFE_MD2gH8KqmMQmdO5-409" value="&lt;span style=&quot;font-size: 11px;&quot;&gt;Wellbeing&lt;/span&gt;&lt;br style=&quot;font-size: 11px;&quot;&gt;&lt;span style=&quot;font-size: 11px;&quot;&gt;write&lt;/span&gt;" style="aspect=fixed;html=1;points=[];align=center;image;fontSize=12;image=img/lib/azure2/compute/Function_Apps.svg;labelBackgroundColor=none;" parent="1" vertex="1">
                    <mxGeometry x="153.72" y="3434.25" width="38.07" height="33.5" as="geometry"/>
                </mxCell>
                <mxCell id="AgFE_MD2gH8KqmMQmdO5-410" value="Graeme" style="shape=umlActor;verticalLabelPosition=bottom;verticalAlign=top;html=1;outlineConnect=0;" parent="1" vertex="1">
                    <mxGeometry x="16.130000000000003" y="3467.75" width="30" height="60" as="geometry"/>
                </mxCell>
                <mxCell id="AgFE_MD2gH8KqmMQmdO5-411" style="edgeStyle=orthogonalEdgeStyle;rounded=0;orthogonalLoop=1;jettySize=auto;html=1;" parent="1" source="AgFE_MD2gH8KqmMQmdO5-412" target="AgFE_MD2gH8KqmMQmdO5-409" edge="1">
                    <mxGeometry relative="1" as="geometry"/>
                </mxCell>
                <mxCell id="AgFE_MD2gH8KqmMQmdO5-412" value="" style="verticalLabelPosition=bottom;verticalAlign=top;html=1;shadow=0;dashed=0;strokeWidth=1;shape=mxgraph.android.phone2;strokeColor=#c0c0c0;" parent="1" vertex="1">
                    <mxGeometry x="56.13" y="3467.75" width="30" height="60" as="geometry"/>
                </mxCell>
                <mxCell id="AgFE_MD2gH8KqmMQmdO5-472" style="edgeStyle=orthogonalEdgeStyle;rounded=0;orthogonalLoop=1;jettySize=auto;html=1;fontSize=9;fontColor=default;startArrow=none;startFill=0;endArrow=classic;endFill=1;entryX=0;entryY=0.5;entryDx=0;entryDy=0;" parent="1" source="AgFE_MD2gH8KqmMQmdO5-422" target="PmaRed3diDtcTDXIdMSH-80" edge="1">
                    <mxGeometry relative="1" as="geometry">
                        <mxPoint x="371.79" y="3422.75" as="targetPoint"/>
                        <Array as="points">
                            <mxPoint x="278" y="3407"/>
                        </Array>
                    </mxGeometry>
                </mxCell>
                <mxCell id="AgFE_MD2gH8KqmMQmdO5-473" style="edgeStyle=orthogonalEdgeStyle;rounded=0;orthogonalLoop=1;jettySize=auto;html=1;entryX=0.019;entryY=0.45;entryDx=0;entryDy=0;entryPerimeter=0;fontSize=9;fontColor=default;startArrow=none;startFill=0;endArrow=classic;endFill=1;" parent="1" source="AgFE_MD2gH8KqmMQmdO5-422" target="AgFE_MD2gH8KqmMQmdO5-468" edge="1">
                    <mxGeometry relative="1" as="geometry">
                        <Array as="points">
                            <mxPoint x="276.79" y="3477.75"/>
                        </Array>
                    </mxGeometry>
                </mxCell>
                <mxCell id="AgFE_MD2gH8KqmMQmdO5-422" value="" style="aspect=fixed;html=1;points=[];align=center;image;fontSize=12;image=img/lib/azure2/databases/Azure_Cosmos_DB.svg;labelBackgroundColor=none;" parent="1" vertex="1">
                    <mxGeometry x="262" y="3432.96" width="31.04" height="31.04" as="geometry"/>
                </mxCell>
                <mxCell id="AgFE_MD2gH8KqmMQmdO5-447" style="edgeStyle=orthogonalEdgeStyle;rounded=0;orthogonalLoop=1;jettySize=auto;html=1;dashed=1;fontSize=6;fontColor=default;startArrow=none;startFill=0;endArrow=classic;endFill=1;" parent="1" source="AgFE_MD2gH8KqmMQmdO5-446" target="AgFE_MD2gH8KqmMQmdO5-342" edge="1">
                    <mxGeometry relative="1" as="geometry">
                        <Array as="points">
                            <mxPoint x="255.70000000000002" y="2659"/>
                        </Array>
                    </mxGeometry>
                </mxCell>
                <mxCell id="AgFE_MD2gH8KqmMQmdO5-451" style="edgeStyle=orthogonalEdgeStyle;rounded=0;orthogonalLoop=1;jettySize=auto;html=1;fontSize=6;fontColor=default;startArrow=none;startFill=0;endArrow=classic;endFill=1;" parent="1" source="AgFE_MD2gH8KqmMQmdO5-446" target="AgFE_MD2gH8KqmMQmdO5-157" edge="1">
                    <mxGeometry relative="1" as="geometry"/>
                </mxCell>
                <mxCell id="AgFE_MD2gH8KqmMQmdO5-446" value="Dispatcher" style="aspect=fixed;html=1;points=[];align=center;image;fontSize=12;image=img/lib/azure2/compute/Function_Apps.svg;labelBackgroundColor=none;fontColor=default;" parent="1" vertex="1">
                    <mxGeometry x="240.57999999999996" y="2675.88" width="30.59" height="26.92" as="geometry"/>
                </mxCell>
                <mxCell id="AgFE_MD2gH8KqmMQmdO5-452" style="edgeStyle=orthogonalEdgeStyle;rounded=0;orthogonalLoop=1;jettySize=auto;html=1;dashed=1;fontSize=6;fontColor=default;startArrow=none;startFill=0;endArrow=classic;endFill=1;" parent="1" source="AgFE_MD2gH8KqmMQmdO5-453" target="AgFE_MD2gH8KqmMQmdO5-379" edge="1">
                    <mxGeometry relative="1" as="geometry">
                        <mxPoint x="192.97000000000014" y="3115.2" as="targetPoint"/>
                        <Array as="points">
                            <mxPoint x="259.96999999999997" y="3115"/>
                        </Array>
                    </mxGeometry>
                </mxCell>
                <mxCell id="AgFE_MD2gH8KqmMQmdO5-461" style="edgeStyle=orthogonalEdgeStyle;rounded=0;orthogonalLoop=1;jettySize=auto;html=1;fontSize=6;fontColor=default;startArrow=none;startFill=0;endArrow=classic;endFill=1;" parent="1" source="AgFE_MD2gH8KqmMQmdO5-453" target="AgFE_MD2gH8KqmMQmdO5-382" edge="1">
                    <mxGeometry relative="1" as="geometry"/>
                </mxCell>
                <mxCell id="AgFE_MD2gH8KqmMQmdO5-453" value="Dispatcher" style="aspect=fixed;html=1;points=[];align=center;image;fontSize=12;image=img/lib/azure2/compute/Function_Apps.svg;labelBackgroundColor=none;fontColor=default;" parent="1" vertex="1">
                    <mxGeometry x="239.41" y="3189" width="30.59" height="26.92" as="geometry"/>
                </mxCell>
                <mxCell id="AgFE_MD2gH8KqmMQmdO5-464" value="01/01/2021&lt;br style=&quot;font-size: 9px;&quot;&gt;Graeme&lt;br style=&quot;font-size: 9px;&quot;&gt;1" style="text;html=1;align=center;verticalAlign=middle;resizable=0;points=[];autosize=1;strokeColor=none;fillColor=none;fontSize=9;fontColor=default;" parent="1" vertex="1">
                    <mxGeometry x="373.76" y="3392.75" width="55" height="37" as="geometry"/>
                </mxCell>
                <mxCell id="AgFE_MD2gH8KqmMQmdO5-465" value="02/01/2021&lt;br style=&quot;font-size: 9px&quot;&gt;Graeme&lt;br style=&quot;font-size: 9px&quot;&gt;2" style="text;html=1;align=center;verticalAlign=middle;resizable=0;points=[];autosize=1;strokeColor=none;fillColor=none;fontSize=9;fontColor=default;" parent="1" vertex="1">
                    <mxGeometry x="438.66999999999996" y="3394.75" width="55" height="37" as="geometry"/>
                </mxCell>
                <mxCell id="AgFE_MD2gH8KqmMQmdO5-466" value="03/01/2021&lt;br style=&quot;font-size: 9px&quot;&gt;Graeme&lt;br style=&quot;font-size: 9px&quot;&gt;1" style="text;html=1;align=center;verticalAlign=middle;resizable=0;points=[];autosize=1;strokeColor=none;fillColor=none;fontSize=9;fontColor=default;" parent="1" vertex="1">
                    <mxGeometry x="507.76" y="3394.75" width="55" height="37" as="geometry"/>
                </mxCell>
                <mxCell id="AgFE_MD2gH8KqmMQmdO5-476" style="edgeStyle=orthogonalEdgeStyle;rounded=0;orthogonalLoop=1;jettySize=auto;html=1;fontSize=9;fontColor=default;startArrow=none;startFill=0;endArrow=classic;endFill=1;exitX=1;exitY=1;exitDx=0;exitDy=0;" parent="1" source="PmaRed3diDtcTDXIdMSH-80" target="AgFE_MD2gH8KqmMQmdO5-475" edge="1">
                    <mxGeometry relative="1" as="geometry">
                        <Array as="points">
                            <mxPoint x="679" y="3441"/>
                            <mxPoint x="679" y="3548"/>
                        </Array>
                    </mxGeometry>
                </mxCell>
                <mxCell id="AgFE_MD2gH8KqmMQmdO5-467" value="04/01/2021&lt;br style=&quot;font-size: 9px&quot;&gt;Graeme&lt;br style=&quot;font-size: 9px&quot;&gt;4" style="text;html=1;align=center;verticalAlign=middle;resizable=0;points=[];autosize=1;strokeColor=none;fillColor=none;fontSize=9;fontColor=default;" parent="1" vertex="1">
                    <mxGeometry x="576.26" y="3396.25" width="55" height="37" as="geometry"/>
                </mxCell>
                <mxCell id="AgFE_MD2gH8KqmMQmdO5-468" value="03/01/2021&lt;br style=&quot;font-size: 9px&quot;&gt;Suhas&lt;br style=&quot;font-size: 9px&quot;&gt;4" style="text;html=1;align=center;verticalAlign=middle;resizable=0;points=[];autosize=1;strokeColor=none;fillColor=none;fontSize=9;fontColor=default;" parent="1" vertex="1">
                    <mxGeometry x="372.67" y="3460.75" width="55" height="37" as="geometry"/>
                </mxCell>
                <mxCell id="AgFE_MD2gH8KqmMQmdO5-469" value="04/01/2021&lt;br style=&quot;font-size: 9px&quot;&gt;Suhas&lt;br style=&quot;font-size: 9px&quot;&gt;5" style="text;html=1;align=center;verticalAlign=middle;resizable=0;points=[];autosize=1;strokeColor=none;fillColor=none;fontSize=9;fontColor=default;" parent="1" vertex="1">
                    <mxGeometry x="437.58" y="3462.75" width="55" height="37" as="geometry"/>
                </mxCell>
                <mxCell id="AgFE_MD2gH8KqmMQmdO5-470" value="05/01/2021&lt;br style=&quot;font-size: 9px&quot;&gt;Suhas&lt;br style=&quot;font-size: 9px&quot;&gt;2" style="text;html=1;align=center;verticalAlign=middle;resizable=0;points=[];autosize=1;strokeColor=none;fillColor=none;fontSize=9;fontColor=default;" parent="1" vertex="1">
                    <mxGeometry x="506.67" y="3462.75" width="55" height="37" as="geometry"/>
                </mxCell>
                <mxCell id="AgFE_MD2gH8KqmMQmdO5-471" value="06/01/2021&lt;br style=&quot;font-size: 9px&quot;&gt;Suhas&lt;br style=&quot;font-size: 9px&quot;&gt;5" style="text;html=1;align=center;verticalAlign=middle;resizable=0;points=[];autosize=1;strokeColor=none;fillColor=none;fontSize=9;fontColor=default;" parent="1" vertex="1">
                    <mxGeometry x="575.17" y="3464.25" width="55" height="37" as="geometry"/>
                </mxCell>
                <mxCell id="AgFE_MD2gH8KqmMQmdO5-481" style="edgeStyle=orthogonalEdgeStyle;rounded=0;orthogonalLoop=1;jettySize=auto;html=1;fontSize=9;fontColor=default;startArrow=none;startFill=0;endArrow=classic;endFill=1;" parent="1" source="AgFE_MD2gH8KqmMQmdO5-475" target="AgFE_MD2gH8KqmMQmdO5-480" edge="1">
                    <mxGeometry relative="1" as="geometry"/>
                </mxCell>
                <mxCell id="AgFE_MD2gH8KqmMQmdO5-475" value="Event&amp;nbsp;&lt;br&gt;Processor" style="aspect=fixed;html=1;points=[];align=center;image;fontSize=12;image=img/lib/azure2/compute/Function_Apps.svg;labelBackgroundColor=none;" parent="1" vertex="1">
                    <mxGeometry x="284.56" y="3530.75" width="38.07" height="33.5" as="geometry"/>
                </mxCell>
                <mxCell id="AgFE_MD2gH8KqmMQmdO5-483" style="edgeStyle=orthogonalEdgeStyle;rounded=0;orthogonalLoop=1;jettySize=auto;html=1;fontSize=9;fontColor=default;startArrow=none;startFill=0;endArrow=classic;endFill=1;" parent="1" source="AgFE_MD2gH8KqmMQmdO5-479" target="AgFE_MD2gH8KqmMQmdO5-480" edge="1">
                    <mxGeometry relative="1" as="geometry"/>
                </mxCell>
                <mxCell id="AgFE_MD2gH8KqmMQmdO5-484" style="edgeStyle=orthogonalEdgeStyle;rounded=0;orthogonalLoop=1;jettySize=auto;html=1;entryX=1.011;entryY=0.709;entryDx=0;entryDy=0;entryPerimeter=0;fontSize=9;fontColor=default;startArrow=classic;startFill=1;endArrow=none;endFill=0;" parent="1" source="AgFE_MD2gH8KqmMQmdO5-479" target="AgFE_MD2gH8KqmMQmdO5-412" edge="1">
                    <mxGeometry relative="1" as="geometry"/>
                </mxCell>
                <mxCell id="AgFE_MD2gH8KqmMQmdO5-479" value="Wellbeing &lt;br&gt;read" style="aspect=fixed;html=1;points=[];align=center;image;fontSize=12;image=img/lib/azure2/compute/Function_Apps.svg;labelBackgroundColor=none;" parent="1" vertex="1">
                    <mxGeometry x="153.72" y="3531" width="38.07" height="33.5" as="geometry"/>
                </mxCell>
                <mxCell id="AgFE_MD2gH8KqmMQmdO5-480" value="" style="aspect=fixed;html=1;points=[];align=center;image;fontSize=12;image=img/lib/azure2/databases/SQL_Database.svg;labelBackgroundColor=none;" parent="1" vertex="1">
                    <mxGeometry x="222.38" y="3527.75" width="30.96" height="40.25" as="geometry"/>
                </mxCell>
                <mxCell id="AgFE_MD2gH8KqmMQmdO5-485" value="Suhas" style="shape=umlActor;verticalLabelPosition=bottom;verticalAlign=top;html=1;outlineConnect=0;" parent="1" vertex="1">
                    <mxGeometry x="33.580000000000005" y="1095.75" width="30" height="60" as="geometry"/>
                </mxCell>
                <mxCell id="AgFE_MD2gH8KqmMQmdO5-486" value="" style="verticalLabelPosition=bottom;verticalAlign=top;html=1;shadow=0;dashed=0;strokeWidth=1;shape=mxgraph.android.phone2;strokeColor=#c0c0c0;" parent="1" vertex="1">
                    <mxGeometry x="71.01" y="1095.75" width="30" height="60" as="geometry"/>
                </mxCell>
                <mxCell id="AgFE_MD2gH8KqmMQmdO5-487" style="edgeStyle=orthogonalEdgeStyle;rounded=0;orthogonalLoop=1;jettySize=auto;html=1;" parent="1" source="AgFE_MD2gH8KqmMQmdO5-489" target="AgFE_MD2gH8KqmMQmdO5-486" edge="1">
                    <mxGeometry relative="1" as="geometry"/>
                </mxCell>
                <mxCell id="AgFE_MD2gH8KqmMQmdO5-488" style="edgeStyle=orthogonalEdgeStyle;rounded=0;orthogonalLoop=1;jettySize=auto;html=1;entryX=0.005;entryY=0.63;entryDx=0;entryDy=0;entryPerimeter=0;fontSize=11;fontColor=default;startArrow=classic;startFill=1;endArrow=none;endFill=0;" parent="1" source="AgFE_MD2gH8KqmMQmdO5-489" target="AgFE_MD2gH8KqmMQmdO5-494" edge="1">
                    <mxGeometry relative="1" as="geometry"/>
                </mxCell>
                <mxCell id="AgFE_MD2gH8KqmMQmdO5-489" value="" style="html=1;verticalLabelPosition=bottom;align=center;labelBackgroundColor=#ffffff;verticalAlign=top;strokeWidth=2;strokeColor=#0080F0;shadow=0;dashed=0;shape=mxgraph.ios7.icons.mail;" parent="1" vertex="1">
                    <mxGeometry x="186.42" y="879.75" width="30" height="16.5" as="geometry"/>
                </mxCell>
                <mxCell id="AgFE_MD2gH8KqmMQmdO5-490" style="edgeStyle=orthogonalEdgeStyle;rounded=0;orthogonalLoop=1;jettySize=auto;html=1;entryX=0.005;entryY=0.63;entryDx=0;entryDy=0;entryPerimeter=0;startArrow=classic;startFill=1;endArrow=none;endFill=0;dashed=1;" parent="1" target="AgFE_MD2gH8KqmMQmdO5-491" edge="1">
                    <mxGeometry relative="1" as="geometry">
                        <mxPoint x="659.67" y="973" as="targetPoint"/>
                        <mxPoint x="592.4200000000001" y="882" as="sourcePoint"/>
                    </mxGeometry>
                </mxCell>
                <mxCell id="AgFE_MD2gH8KqmMQmdO5-491" value="" style="sketch=0;html=1;dashed=0;whitespace=wrap;fillColor=#2875E2;strokeColor=#ffffff;points=[[0.005,0.63,0],[0.1,0.2,0],[0.9,0.2,0],[0.5,0,0],[0.995,0.63,0],[0.72,0.99,0],[0.5,1,0],[0.28,0.99,0]];shape=mxgraph.kubernetes.icon;prIcon=api" parent="1" vertex="1">
                    <mxGeometry x="740.0799999999998" y="852.25" width="50" height="48" as="geometry"/>
                </mxCell>
                <mxCell id="AgFE_MD2gH8KqmMQmdO5-492" value="HR Service" style="text;html=1;align=center;verticalAlign=middle;resizable=0;points=[];autosize=1;strokeColor=none;fillColor=none;" parent="1" vertex="1">
                    <mxGeometry x="731.9999999999998" y="906" width="71" height="18" as="geometry"/>
                </mxCell>
                <mxCell id="AgFE_MD2gH8KqmMQmdO5-494" value="" style="sketch=0;html=1;dashed=0;whitespace=wrap;fillColor=#2875E2;strokeColor=#ffffff;points=[[0.005,0.63,0],[0.1,0.2,0],[0.9,0.2,0],[0.5,0,0],[0.995,0.63,0],[0.72,0.99,0],[0.5,1,0],[0.28,0.99,0]];shape=mxgraph.kubernetes.icon;prIcon=api" parent="1" vertex="1">
                    <mxGeometry x="453.9199999999999" y="858" width="50" height="48" as="geometry"/>
                </mxCell>
                <mxCell id="AgFE_MD2gH8KqmMQmdO5-495" value="" style="rounded=1;whiteSpace=wrap;html=1;labelBackgroundColor=none;fontSize=11;fillColor=#d5e8d4;strokeColor=#82b366;" parent="1" vertex="1">
                    <mxGeometry x="133.01" y="943.75" width="506.99" height="276" as="geometry"/>
                </mxCell>
                <mxCell id="AgFE_MD2gH8KqmMQmdO5-496" style="edgeStyle=orthogonalEdgeStyle;rounded=0;orthogonalLoop=1;jettySize=auto;html=1;fontSize=11;startArrow=none;startFill=0;endArrow=classic;endFill=1;" parent="1" source="AgFE_MD2gH8KqmMQmdO5-497" target="AgFE_MD2gH8KqmMQmdO5-499" edge="1">
                    <mxGeometry relative="1" as="geometry">
                        <mxPoint x="183.455" y="1112.83" as="sourcePoint"/>
                        <mxPoint x="184.205" y="1074.75" as="targetPoint"/>
                    </mxGeometry>
                </mxCell>
                <mxCell id="AgFE_MD2gH8KqmMQmdO5-497" value="" style="aspect=fixed;html=1;points=[];align=center;image;fontSize=12;image=img/lib/azure2/compute/Function_Apps.svg;" parent="1" vertex="1">
                    <mxGeometry x="166.17000000000004" y="1112.83" width="30.59" height="26.92" as="geometry"/>
                </mxCell>
                <mxCell id="AgFE_MD2gH8KqmMQmdO5-498" value="Wellbeing rating" style="text;html=1;align=center;verticalAlign=middle;resizable=0;points=[];autosize=1;strokeColor=none;fillColor=none;" parent="1" vertex="1">
                    <mxGeometry x="138.17000000000002" y="1145.75" width="100" height="20" as="geometry"/>
                </mxCell>
                <mxCell id="AgFE_MD2gH8KqmMQmdO5-499" value="" style="aspect=fixed;html=1;points=[];align=center;image;fontSize=12;image=img/lib/azure2/databases/Azure_Cosmos_DB.svg;labelBackgroundColor=none;" parent="1" vertex="1">
                    <mxGeometry x="167.47000000000006" y="1046.75" width="28" height="28" as="geometry"/>
                </mxCell>
                <mxCell id="AgFE_MD2gH8KqmMQmdO5-500" style="edgeStyle=orthogonalEdgeStyle;rounded=0;orthogonalLoop=1;jettySize=auto;html=1;fontSize=11;fontColor=default;startArrow=none;startFill=0;endArrow=classic;endFill=1;dashed=1;" parent="1" source="AgFE_MD2gH8KqmMQmdO5-501" target="AgFE_MD2gH8KqmMQmdO5-499" edge="1">
                    <mxGeometry relative="1" as="geometry">
                        <Array as="points">
                            <mxPoint x="278.15999999999997" y="1060.75"/>
                        </Array>
                    </mxGeometry>
                </mxCell>
                <mxCell id="AgFE_MD2gH8KqmMQmdO5-501" value="Dispatcher" style="aspect=fixed;html=1;points=[];align=center;image;fontSize=12;image=img/lib/azure2/compute/Function_Apps.svg;labelBackgroundColor=none;fontColor=default;" parent="1" vertex="1">
                    <mxGeometry x="262.57000000000005" y="1112.29" width="30.59" height="26.92" as="geometry"/>
                </mxCell>
                <mxCell id="AgFE_MD2gH8KqmMQmdO5-502" style="edgeStyle=orthogonalEdgeStyle;rounded=0;orthogonalLoop=1;jettySize=auto;html=1;" parent="1" source="AgFE_MD2gH8KqmMQmdO5-486" target="AgFE_MD2gH8KqmMQmdO5-497" edge="1">
                    <mxGeometry relative="1" as="geometry">
                        <mxPoint x="167.17000000000016" y="1123.75" as="targetPoint"/>
                        <Array as="points"/>
                    </mxGeometry>
                </mxCell>
                <mxCell id="AgFE_MD2gH8KqmMQmdO5-504" value="Durable Function&lt;br&gt;(runs an asynchronous workflow)" style="rounded=1;whiteSpace=wrap;html=1;fillColor=#dae8fc;strokeColor=#6c8ebf;verticalAlign=top;align=center;" parent="1" vertex="1">
                    <mxGeometry x="358.5" y="1043.75" width="261.5" height="152" as="geometry"/>
                </mxCell>
                <mxCell id="AgFE_MD2gH8KqmMQmdO5-520" style="edgeStyle=orthogonalEdgeStyle;rounded=0;orthogonalLoop=1;jettySize=auto;html=1;fontSize=9;fontColor=default;startArrow=none;startFill=0;endArrow=classic;endFill=1;" parent="1" source="AgFE_MD2gH8KqmMQmdO5-505" target="AgFE_MD2gH8KqmMQmdO5-507" edge="1">
                    <mxGeometry relative="1" as="geometry"/>
                </mxCell>
                <mxCell id="AgFE_MD2gH8KqmMQmdO5-505" value="Send &lt;br&gt;Correspondence&lt;br&gt;(Activity)" style="aspect=fixed;html=1;points=[];align=center;image;fontSize=12;image=img/lib/azure2/compute/Function_Apps.svg;labelBackgroundColor=none;" parent="1" vertex="1">
                    <mxGeometry x="460.74" y="1109.7467768595043" width="36.36" height="32" as="geometry"/>
                </mxCell>
                <mxCell id="PmaRed3diDtcTDXIdMSH-35" style="edgeStyle=orthogonalEdgeStyle;rounded=0;orthogonalLoop=1;jettySize=auto;html=1;fontSize=10;startArrow=none;startFill=0;endArrow=classic;endFill=1;" parent="1" source="AgFE_MD2gH8KqmMQmdO5-507" edge="1">
                    <mxGeometry relative="1" as="geometry">
                        <mxPoint x="573.4000000000001" y="901" as="targetPoint"/>
                    </mxGeometry>
                </mxCell>
                <mxCell id="AgFE_MD2gH8KqmMQmdO5-507" value="Broadcast &lt;br&gt;Sentiment&lt;br&gt;(Activity)" style="aspect=fixed;html=1;points=[];align=center;image;fontSize=12;image=img/lib/azure2/compute/Function_Apps.svg;labelBackgroundColor=none;" parent="1" vertex="1">
                    <mxGeometry x="555.46" y="1109.7467768595043" width="36.36" height="32" as="geometry"/>
                </mxCell>
                <mxCell id="AgFE_MD2gH8KqmMQmdO5-508" style="edgeStyle=orthogonalEdgeStyle;rounded=0;orthogonalLoop=1;jettySize=auto;html=1;fontSize=11;fontColor=default;startArrow=none;startFill=0;endArrow=classic;endFill=1;" parent="1" source="AgFE_MD2gH8KqmMQmdO5-509" target="AgFE_MD2gH8KqmMQmdO5-505" edge="1">
                    <mxGeometry relative="1" as="geometry"/>
                </mxCell>
                <mxCell id="AgFE_MD2gH8KqmMQmdO5-509" value="Durable&lt;br&gt;Function&lt;br&gt;Orchestrator" style="aspect=fixed;html=1;points=[];align=center;image;fontSize=12;image=img/lib/azure2/compute/Function_Apps.svg;labelBackgroundColor=none;" parent="1" vertex="1">
                    <mxGeometry x="381.14" y="1110.2867768595042" width="36.36" height="32" as="geometry"/>
                </mxCell>
                <mxCell id="AgFE_MD2gH8KqmMQmdO5-510" style="edgeStyle=orthogonalEdgeStyle;rounded=0;orthogonalLoop=1;jettySize=auto;html=1;fontSize=11;fontColor=default;startArrow=none;startFill=0;endArrow=classic;endFill=1;" parent="1" source="AgFE_MD2gH8KqmMQmdO5-501" target="AgFE_MD2gH8KqmMQmdO5-509" edge="1">
                    <mxGeometry relative="1" as="geometry">
                        <mxPoint x="366.40000000000003" y="1126.840909090909" as="sourcePoint"/>
                    </mxGeometry>
                </mxCell>
                <mxCell id="AgFE_MD2gH8KqmMQmdO5-511" style="edgeStyle=orthogonalEdgeStyle;rounded=0;orthogonalLoop=1;jettySize=auto;html=1;entryX=0.5;entryY=1;entryDx=0;entryDy=0;entryPerimeter=0;fontSize=11;fontColor=default;startArrow=none;startFill=0;endArrow=classic;endFill=1;" parent="1" source="AgFE_MD2gH8KqmMQmdO5-505" target="AgFE_MD2gH8KqmMQmdO5-494" edge="1">
                    <mxGeometry relative="1" as="geometry">
                        <Array as="points">
                            <mxPoint x="478.79" y="957"/>
                            <mxPoint x="478.79" y="957"/>
                        </Array>
                    </mxGeometry>
                </mxCell>
                <mxCell id="PmaRed3diDtcTDXIdMSH-1" value="Store local &lt;br style=&quot;font-size: 10px;&quot;&gt;state" style="text;html=1;align=center;verticalAlign=middle;resizable=0;points=[];autosize=1;strokeColor=none;fillColor=none;fontSize=10;" parent="1" vertex="1">
                    <mxGeometry x="226" y="91" width="57" height="28" as="geometry"/>
                </mxCell>
                <mxCell id="PmaRed3diDtcTDXIdMSH-2" value="Store local &lt;br style=&quot;font-size: 10px;&quot;&gt;state" style="text;html=1;align=center;verticalAlign=middle;resizable=0;points=[];autosize=1;strokeColor=none;fillColor=none;fontSize=10;" parent="1" vertex="1">
                    <mxGeometry x="230.56" y="419" width="60" height="30" as="geometry"/>
                </mxCell>
                <mxCell id="PmaRed3diDtcTDXIdMSH-3" value="Store local &lt;br style=&quot;font-size: 10px&quot;&gt;state + outbox&lt;br&gt;message" style="text;html=1;align=center;verticalAlign=middle;resizable=0;points=[];autosize=1;strokeColor=none;fillColor=none;fontSize=10;" parent="1" vertex="1">
                    <mxGeometry x="212.38" y="681" width="73" height="40" as="geometry"/>
                </mxCell>
                <mxCell id="PmaRed3diDtcTDXIdMSH-4" value="Store local&lt;br&gt;state + outbox&lt;br&gt;message" style="text;html=1;align=center;verticalAlign=middle;resizable=0;points=[];autosize=1;strokeColor=none;fillColor=none;fontSize=10;" parent="1" vertex="1">
                    <mxGeometry x="178.17" y="1075" width="73" height="40" as="geometry"/>
                </mxCell>
                <mxCell id="PmaRed3diDtcTDXIdMSH-5" value="Store local&lt;br&gt;state + outbox&lt;br&gt;message" style="text;html=1;align=center;verticalAlign=middle;resizable=0;points=[];autosize=1;strokeColor=none;fillColor=none;fontSize=10;" parent="1" vertex="1">
                    <mxGeometry x="178.55" y="1502.21" width="73" height="40" as="geometry"/>
                </mxCell>
                <mxCell id="PmaRed3diDtcTDXIdMSH-6" value="Store local&lt;br&gt;state + outbox&lt;br&gt;message" style="text;html=1;align=center;verticalAlign=middle;resizable=0;points=[];autosize=1;strokeColor=none;fillColor=none;fontSize=10;" parent="1" vertex="1">
                    <mxGeometry x="165.42" y="2233" width="73" height="40" as="geometry"/>
                </mxCell>
                <mxCell id="PmaRed3diDtcTDXIdMSH-7" value="Store local&lt;br&gt;state + outbox&lt;br&gt;message" style="text;html=1;align=center;verticalAlign=middle;resizable=0;points=[];autosize=1;strokeColor=none;fillColor=none;fontSize=10;" parent="1" vertex="1">
                    <mxGeometry x="105.16999999999999" y="2675.88" width="73" height="40" as="geometry"/>
                </mxCell>
                <mxCell id="PmaRed3diDtcTDXIdMSH-8" value="Store local&lt;br&gt;state + outbox&lt;br&gt;message" style="text;html=1;align=center;verticalAlign=middle;resizable=0;points=[];autosize=1;strokeColor=none;fillColor=none;fontSize=10;" parent="1" vertex="1">
                    <mxGeometry x="165.42" y="3130" width="73" height="40" as="geometry"/>
                </mxCell>
                <mxCell id="PmaRed3diDtcTDXIdMSH-9" value="Store new &lt;br style=&quot;font-size: 10px;&quot;&gt;event" style="text;html=1;align=center;verticalAlign=middle;resizable=0;points=[];autosize=1;strokeColor=none;fillColor=none;fontSize=10;" parent="1" vertex="1">
                    <mxGeometry x="203.45999999999998" y="3417.75" width="55" height="28" as="geometry"/>
                </mxCell>
                <mxCell id="PmaRed3diDtcTDXIdMSH-10" value="Read model &lt;br style=&quot;font-size: 10px;&quot;&gt;projections" style="text;html=1;align=center;verticalAlign=middle;resizable=0;points=[];autosize=1;strokeColor=none;fillColor=none;fontSize=10;" parent="1" vertex="1">
                    <mxGeometry x="206.35999999999999" y="3570" width="64" height="28" as="geometry"/>
                </mxCell>
                <mxCell id="PmaRed3diDtcTDXIdMSH-11" value="Send &lt;br style=&quot;font-size: 10px;&quot;&gt;Correspondence" style="text;html=1;align=center;verticalAlign=middle;resizable=0;points=[];autosize=1;strokeColor=none;fillColor=none;fontSize=10;" parent="1" vertex="1">
                    <mxGeometry x="268.15999999999997" y="112" width="84" height="28" as="geometry"/>
                </mxCell>
                <mxCell id="PmaRed3diDtcTDXIdMSH-12" value="Send &lt;br style=&quot;font-size: 10px&quot;&gt;Correspondence" style="text;html=1;align=center;verticalAlign=middle;resizable=0;points=[];autosize=1;strokeColor=none;fillColor=none;fontSize=10;" parent="1" vertex="1">
                    <mxGeometry x="405.58" y="439" width="84" height="28" as="geometry"/>
                </mxCell>
                <mxCell id="PmaRed3diDtcTDXIdMSH-13" value="Send &lt;br style=&quot;font-size: 10px&quot;&gt;Correspondence" style="text;html=1;align=center;verticalAlign=middle;resizable=0;points=[];autosize=1;strokeColor=none;fillColor=none;fontSize=10;" parent="1" vertex="1">
                    <mxGeometry x="355.7" y="704" width="84" height="28" as="geometry"/>
                </mxCell>
                <mxCell id="PmaRed3diDtcTDXIdMSH-14" value="Send &lt;br style=&quot;font-size: 10px&quot;&gt;Correspondence" style="text;html=1;align=center;verticalAlign=middle;resizable=0;points=[];autosize=1;strokeColor=none;fillColor=none;fontSize=10;rotation=-90;" parent="1" vertex="1">
                    <mxGeometry x="418.61" y="980" width="84" height="28" as="geometry"/>
                </mxCell>
                <mxCell id="PmaRed3diDtcTDXIdMSH-16" value="Send &lt;br style=&quot;font-size: 10px&quot;&gt;Correspondence" style="text;html=1;align=center;verticalAlign=middle;resizable=0;points=[];autosize=1;strokeColor=none;fillColor=none;fontSize=10;rotation=0;" parent="1" vertex="1">
                    <mxGeometry x="367.98" y="1389.21" width="84" height="28" as="geometry"/>
                </mxCell>
                <mxCell id="PmaRed3diDtcTDXIdMSH-17" value="Broadcast&lt;br style=&quot;font-size: 10px&quot;&gt;EmpoyeeWellbeingRecorded&lt;br&gt;event" style="text;html=1;align=center;verticalAlign=middle;resizable=0;points=[];autosize=1;strokeColor=none;fillColor=none;fontSize=10;rotation=0;" parent="1" vertex="1">
                    <mxGeometry x="325.24" y="2279.75" width="140" height="40" as="geometry"/>
                </mxCell>
                <mxCell id="PmaRed3diDtcTDXIdMSH-20" style="edgeStyle=orthogonalEdgeStyle;rounded=0;orthogonalLoop=1;jettySize=auto;html=1;entryX=0;entryY=0.5;entryDx=0;entryDy=0;fontSize=8;startArrow=none;startFill=0;endArrow=classic;endFill=1;exitX=0.995;exitY=0.63;exitDx=0;exitDy=0;exitPerimeter=0;" parent="1" source="AgFE_MD2gH8KqmMQmdO5-60" target="AgFE_MD2gH8KqmMQmdO5-154" edge="1">
                    <mxGeometry relative="1" as="geometry"/>
                </mxCell>
                <mxCell id="PmaRed3diDtcTDXIdMSH-25" value="Enqueue&amp;nbsp;&lt;br style=&quot;font-size: 10px&quot;&gt;Correspondence" style="text;html=1;align=center;verticalAlign=middle;resizable=0;points=[];autosize=1;strokeColor=none;fillColor=none;fontSize=10;" parent="1" vertex="1">
                    <mxGeometry x="262" y="476.5" width="84" height="28" as="geometry"/>
                </mxCell>
                <mxCell id="PmaRed3diDtcTDXIdMSH-26" value="Trigger on &lt;br style=&quot;font-size: 10px;&quot;&gt;change feed" style="text;html=1;align=center;verticalAlign=middle;resizable=0;points=[];autosize=1;strokeColor=none;fillColor=none;fontSize=10;" parent="1" vertex="1">
                    <mxGeometry x="306.40000000000003" y="670" width="70" height="30" as="geometry"/>
                </mxCell>
                <mxCell id="PmaRed3diDtcTDXIdMSH-27" value="Trigger on &lt;br style=&quot;font-size: 10px;&quot;&gt;change feed" style="text;html=1;align=center;verticalAlign=middle;resizable=0;points=[];autosize=1;strokeColor=none;fillColor=none;fontSize=10;" parent="1" vertex="1">
                    <mxGeometry x="274.00000000000006" y="1060" width="70" height="30" as="geometry"/>
                </mxCell>
                <mxCell id="PmaRed3diDtcTDXIdMSH-28" value="Trigger on &lt;br style=&quot;font-size: 10px;&quot;&gt;change feed" style="text;html=1;align=center;verticalAlign=middle;resizable=0;points=[];autosize=1;strokeColor=none;fillColor=none;fontSize=10;" parent="1" vertex="1">
                    <mxGeometry x="272.58000000000004" y="1483.21" width="70" height="30" as="geometry"/>
                </mxCell>
                <mxCell id="PmaRed3diDtcTDXIdMSH-29" value="Trigger on &lt;br style=&quot;font-size: 10px;&quot;&gt;change feed" style="text;html=1;align=center;verticalAlign=middle;resizable=0;points=[];autosize=1;strokeColor=none;fillColor=none;fontSize=10;" parent="1" vertex="1">
                    <mxGeometry x="285.6600000000001" y="2210" width="65" height="28" as="geometry"/>
                </mxCell>
                <mxCell id="PmaRed3diDtcTDXIdMSH-30" value="Trigger on &lt;br style=&quot;font-size: 10px;&quot;&gt;change feed" style="text;html=1;align=center;verticalAlign=middle;resizable=0;points=[];autosize=1;strokeColor=none;fillColor=none;fontSize=10;" parent="1" vertex="1">
                    <mxGeometry x="258.7200000000001" y="2645.84" width="65" height="28" as="geometry"/>
                </mxCell>
                <mxCell id="PmaRed3diDtcTDXIdMSH-31" value="Trigger on &lt;br style=&quot;font-size: 10px;&quot;&gt;change feed" style="text;html=1;align=center;verticalAlign=middle;resizable=0;points=[];autosize=1;strokeColor=none;fillColor=none;fontSize=10;" parent="1" vertex="1">
                    <mxGeometry x="251.4600000000001" y="3112.83" width="65" height="28" as="geometry"/>
                </mxCell>
                <mxCell id="PmaRed3diDtcTDXIdMSH-32" value="Trigger on &lt;br style=&quot;font-size: 9px;&quot;&gt;change feed" style="text;html=1;align=center;verticalAlign=middle;resizable=0;points=[];autosize=1;strokeColor=none;fillColor=none;fontSize=9;" parent="1" vertex="1">
                    <mxGeometry x="463.10000000000014" y="3550" width="60" height="30" as="geometry"/>
                </mxCell>
                <mxCell id="PmaRed3diDtcTDXIdMSH-33" value="Broadcast event" style="text;html=1;align=center;verticalAlign=middle;resizable=0;points=[];autosize=1;strokeColor=none;fillColor=none;fontSize=10;rotation=-90;" parent="1" vertex="1">
                    <mxGeometry x="513.03" y="984" width="90" height="20" as="geometry"/>
                </mxCell>
                <mxCell id="PmaRed3diDtcTDXIdMSH-36" value="Topic&amp;nbsp;&lt;br&gt;Subscription" style="text;html=1;align=center;verticalAlign=middle;resizable=0;points=[];autosize=1;strokeColor=none;fillColor=none;fontSize=10;" parent="1" vertex="1">
                    <mxGeometry x="638.3499999999999" y="849.75" width="70" height="30" as="geometry"/>
                </mxCell>
                <mxCell id="PmaRed3diDtcTDXIdMSH-38" style="edgeStyle=orthogonalEdgeStyle;rounded=0;orthogonalLoop=1;jettySize=auto;html=1;entryX=0.005;entryY=0.63;entryDx=0;entryDy=0;entryPerimeter=0;startArrow=classic;startFill=1;endArrow=none;endFill=0;dashed=1;" parent="1" source="PmaRed3diDtcTDXIdMSH-41" target="PmaRed3diDtcTDXIdMSH-39" edge="1">
                    <mxGeometry relative="1" as="geometry">
                        <mxPoint x="765.32" y="1401.25" as="targetPoint"/>
                        <mxPoint x="718.0000000000001" y="1311.25" as="sourcePoint"/>
                    </mxGeometry>
                </mxCell>
                <mxCell id="PmaRed3diDtcTDXIdMSH-39" value="" style="sketch=0;html=1;dashed=0;whitespace=wrap;fillColor=#2875E2;strokeColor=#ffffff;points=[[0.005,0.63,0],[0.1,0.2,0],[0.9,0.2,0],[0.5,0,0],[0.995,0.63,0],[0.72,0.99,0],[0.5,1,0],[0.28,0.99,0]];shape=mxgraph.kubernetes.icon;prIcon=api" parent="1" vertex="1">
                    <mxGeometry x="744.9999999999999" y="1277.96" width="50" height="48" as="geometry"/>
                </mxCell>
                <mxCell id="PmaRed3diDtcTDXIdMSH-40" value="HR Service" style="text;html=1;align=center;verticalAlign=middle;resizable=0;points=[];autosize=1;strokeColor=none;fillColor=none;" parent="1" vertex="1">
                    <mxGeometry x="740.0799999999999" y="1332" width="71" height="18" as="geometry"/>
                </mxCell>
                <mxCell id="PmaRed3diDtcTDXIdMSH-41" value="" style="shape=image;verticalLabelPosition=bottom;labelBackgroundColor=default;verticalAlign=top;aspect=fixed;imageAspect=0;image=img/lib/mscae/Service_Bus.svg;" parent="1" vertex="1">
                    <mxGeometry x="631.2600000000001" y="1289.96" width="38" height="38" as="geometry"/>
                </mxCell>
                <mxCell id="PmaRed3diDtcTDXIdMSH-42" style="edgeStyle=orthogonalEdgeStyle;rounded=0;orthogonalLoop=1;jettySize=auto;html=1;fontSize=10;startArrow=none;startFill=0;endArrow=classic;endFill=1;" parent="1" source="PmaRed3diDtcTDXIdMSH-43" target="PmaRed3diDtcTDXIdMSH-41" edge="1">
                    <mxGeometry relative="1" as="geometry">
                        <Array as="points">
                            <mxPoint x="650" y="1310"/>
                        </Array>
                    </mxGeometry>
                </mxCell>
                <mxCell id="PmaRed3diDtcTDXIdMSH-43" value="Broadcast &lt;br&gt;Sentiment&lt;br&gt;(Activity)" style="aspect=fixed;html=1;points=[];align=center;image;fontSize=12;image=img/lib/azure2/compute/Function_Apps.svg;labelBackgroundColor=none;" parent="1" vertex="1">
                    <mxGeometry x="631.26" y="1536.9567768595043" width="36.36" height="32" as="geometry"/>
                </mxCell>
                <mxCell id="PmaRed3diDtcTDXIdMSH-44" value="Broadcast event" style="text;html=1;align=center;verticalAlign=middle;resizable=0;points=[];autosize=1;strokeColor=none;fillColor=none;fontSize=10;rotation=-90;" parent="1" vertex="1">
                    <mxGeometry x="595.68" y="1413.25" width="90" height="20" as="geometry"/>
                </mxCell>
                <mxCell id="PmaRed3diDtcTDXIdMSH-45" value="Topic&amp;nbsp;&lt;br style=&quot;font-size: 10px;&quot;&gt;Subscription" style="text;html=1;align=center;verticalAlign=middle;resizable=0;points=[];autosize=1;strokeColor=none;fillColor=none;fontSize=10;" parent="1" vertex="1">
                    <mxGeometry x="674.9999999999999" y="1276.96" width="70" height="30" as="geometry"/>
                </mxCell>
                <mxCell id="PmaRed3diDtcTDXIdMSH-48" value="Intiate&lt;br style=&quot;font-size: 10px;&quot;&gt;Orchestration" style="text;html=1;align=center;verticalAlign=middle;resizable=0;points=[];autosize=1;strokeColor=none;fillColor=none;fontSize=10;" parent="1" vertex="1">
                    <mxGeometry x="291.08000000000004" y="1548.96" width="80" height="30" as="geometry"/>
                </mxCell>
                <mxCell id="PmaRed3diDtcTDXIdMSH-50" value="Topic&amp;nbsp;&lt;br style=&quot;font-size: 10px;&quot;&gt;Subscription" style="text;html=1;align=center;verticalAlign=middle;resizable=0;points=[];autosize=1;strokeColor=none;fillColor=none;fontSize=10;" parent="1" vertex="1">
                    <mxGeometry x="540.4999999999999" y="2005.75" width="70" height="30" as="geometry"/>
                </mxCell>
                <mxCell id="PmaRed3diDtcTDXIdMSH-51" value="Topic&amp;nbsp;&lt;br style=&quot;font-size: 10px;&quot;&gt;Subscription" style="text;html=1;align=center;verticalAlign=middle;resizable=0;points=[];autosize=1;strokeColor=none;fillColor=none;fontSize=10;" parent="1" vertex="1">
                    <mxGeometry x="493.51999999999987" y="2073.75" width="70" height="30" as="geometry"/>
                </mxCell>
                <mxCell id="PmaRed3diDtcTDXIdMSH-52" value="Topic&amp;nbsp;&lt;br style=&quot;font-size: 10px;&quot;&gt;Subscription" style="text;html=1;align=center;verticalAlign=middle;resizable=0;points=[];autosize=1;strokeColor=none;fillColor=none;fontSize=10;" parent="1" vertex="1">
                    <mxGeometry x="289.57999999999987" y="2110" width="70" height="30" as="geometry"/>
                </mxCell>
                <mxCell id="PmaRed3diDtcTDXIdMSH-54" value="Read from &lt;br&gt;Queue" style="text;html=1;align=center;verticalAlign=middle;resizable=0;points=[];autosize=1;strokeColor=none;fillColor=none;fontSize=10;" parent="1" vertex="1">
                    <mxGeometry x="456.45999999999987" y="2611.67" width="60" height="30" as="geometry"/>
                </mxCell>
                <mxCell id="PmaRed3diDtcTDXIdMSH-57" value="Send routing slip&lt;br&gt;message" style="text;html=1;align=center;verticalAlign=middle;resizable=0;points=[];autosize=1;strokeColor=none;fillColor=none;fontSize=10;" parent="1" vertex="1">
                    <mxGeometry x="305" y="2687" width="90" height="30" as="geometry"/>
                </mxCell>
                <mxCell id="PmaRed3diDtcTDXIdMSH-58" value="Pull from &lt;br&gt;queue" style="text;html=1;align=center;verticalAlign=middle;resizable=0;points=[];autosize=1;strokeColor=none;fillColor=none;fontSize=10;" parent="1" vertex="1">
                    <mxGeometry x="343.02999999999986" y="3048" width="50" height="30" as="geometry"/>
                </mxCell>
                <mxCell id="PmaRed3diDtcTDXIdMSH-59" value="Read from &lt;br&gt;Queue" style="text;html=1;align=center;verticalAlign=middle;resizable=0;points=[];autosize=1;strokeColor=none;fillColor=none;fontSize=10;" parent="1" vertex="1">
                    <mxGeometry x="593.1299999999999" y="2611.67" width="60" height="30" as="geometry"/>
                </mxCell>
                <mxCell id="PmaRed3diDtcTDXIdMSH-60" value="Process&lt;br&gt;State Store" style="text;html=1;align=center;verticalAlign=middle;resizable=0;points=[];autosize=1;strokeColor=none;fillColor=none;fontSize=10;" parent="1" vertex="1">
                    <mxGeometry x="397.78999999999996" y="3238" width="60" height="28" as="geometry"/>
                </mxCell>
                <mxCell id="PmaRed3diDtcTDXIdMSH-61" value="Start new &lt;br style=&quot;font-size: 10px;&quot;&gt;Process" style="text;html=1;align=center;verticalAlign=middle;resizable=0;points=[];autosize=1;strokeColor=none;fillColor=none;fontSize=10;" parent="1" vertex="1">
                    <mxGeometry x="279.8400000000001" y="3175" width="52" height="28" as="geometry"/>
                </mxCell>
                <mxCell id="PmaRed3diDtcTDXIdMSH-63" value="Pull from queue" style="text;html=1;align=center;verticalAlign=middle;resizable=0;points=[];autosize=1;strokeColor=none;fillColor=none;fontSize=10;" parent="1" vertex="1">
                    <mxGeometry x="402.6799999999999" y="3159" width="90" height="20" as="geometry"/>
                </mxCell>
                <mxCell id="PmaRed3diDtcTDXIdMSH-67" value="&lt;span style=&quot;color: rgb(0, 0, 0); font-family: helvetica; font-size: 12px; font-style: normal; font-weight: 400; letter-spacing: normal; text-align: center; text-indent: 0px; text-transform: none; word-spacing: 0px; background-color: rgb(248, 249, 250); display: inline; float: none;&quot;&gt;Correspondence&lt;/span&gt;&lt;br style=&quot;color: rgb(0, 0, 0); font-family: helvetica; font-size: 12px; font-style: normal; font-weight: 400; letter-spacing: normal; text-align: center; text-indent: 0px; text-transform: none; word-spacing: 0px; background-color: rgb(248, 249, 250);&quot;&gt;&lt;span style=&quot;color: rgb(0, 0, 0); font-family: helvetica; font-size: 12px; font-style: normal; font-weight: 400; letter-spacing: normal; text-align: center; text-indent: 0px; text-transform: none; word-spacing: 0px; background-color: rgb(248, 249, 250); display: inline; float: none;&quot;&gt;service&lt;/span&gt;" style="text;whiteSpace=wrap;html=1;fontSize=10;" parent="1" vertex="1">
                    <mxGeometry x="412.8826717403019" y="840.7462937769398" width="109" height="39" as="geometry"/>
                </mxCell>
                <mxCell id="PmaRed3diDtcTDXIdMSH-69" value="&lt;span style=&quot;color: rgb(0, 0, 0); font-family: helvetica; font-size: 12px; font-style: normal; font-weight: 400; letter-spacing: normal; text-align: center; text-indent: 0px; text-transform: none; word-spacing: 0px; background-color: rgb(248, 249, 250); display: inline; float: none;&quot;&gt;Correspondence&lt;/span&gt;&lt;br style=&quot;color: rgb(0, 0, 0); font-family: helvetica; font-size: 12px; font-style: normal; font-weight: 400; letter-spacing: normal; text-align: center; text-indent: 0px; text-transform: none; word-spacing: 0px; background-color: rgb(248, 249, 250);&quot;&gt;&lt;span style=&quot;color: rgb(0, 0, 0); font-family: helvetica; font-size: 12px; font-style: normal; font-weight: 400; letter-spacing: normal; text-align: center; text-indent: 0px; text-transform: none; word-spacing: 0px; background-color: rgb(248, 249, 250); display: inline; float: none;&quot;&gt;service&lt;/span&gt;" style="text;whiteSpace=wrap;html=1;fontSize=10;" parent="1" vertex="1">
                    <mxGeometry x="274.0026717403019" y="1259.9962937769396" width="109" height="39" as="geometry"/>
                </mxCell>
                <mxCell id="PmaRed3diDtcTDXIdMSH-70" value="&lt;span style=&quot;color: rgb(0, 0, 0); font-family: helvetica; font-size: 12px; font-style: normal; font-weight: 400; letter-spacing: normal; text-align: center; text-indent: 0px; text-transform: none; word-spacing: 0px; background-color: rgb(248, 249, 250); display: inline; float: none;&quot;&gt;Correspondence&lt;/span&gt;&lt;br style=&quot;color: rgb(0, 0, 0); font-family: helvetica; font-size: 12px; font-style: normal; font-weight: 400; letter-spacing: normal; text-align: center; text-indent: 0px; text-transform: none; word-spacing: 0px; background-color: rgb(248, 249, 250);&quot;&gt;&lt;span style=&quot;color: rgb(0, 0, 0); font-family: helvetica; font-size: 12px; font-style: normal; font-weight: 400; letter-spacing: normal; text-align: center; text-indent: 0px; text-transform: none; word-spacing: 0px; background-color: rgb(248, 249, 250); display: inline; float: none;&quot;&gt;service&lt;/span&gt;" style="text;whiteSpace=wrap;html=1;fontSize=10;" parent="1" vertex="1">
                    <mxGeometry x="222.38267174030187" y="1990.9962937769396" width="109" height="39" as="geometry"/>
                </mxCell>
                <mxCell id="PmaRed3diDtcTDXIdMSH-74" value="EmployeeCorrespondenceSent topic&lt;br&gt;type: Wellbeing" style="text;html=1;align=center;verticalAlign=middle;resizable=0;points=[];autosize=1;strokeColor=none;fillColor=none;fontSize=11;fontColor=default;" parent="1" vertex="1">
                    <mxGeometry x="360.02000000000004" y="1332" width="189" height="30" as="geometry"/>
                </mxCell>
                <mxCell id="PmaRed3diDtcTDXIdMSH-75" value="Topic&amp;nbsp;&lt;br style=&quot;font-size: 10px;&quot;&gt;Subscription" style="text;html=1;align=center;verticalAlign=middle;resizable=0;points=[];autosize=1;strokeColor=none;fillColor=none;fontSize=10;" parent="1" vertex="1">
                    <mxGeometry x="506.66999999999985" y="1281" width="70" height="30" as="geometry"/>
                </mxCell>
                <mxCell id="PmaRed3diDtcTDXIdMSH-76" value="&lt;strike style=&quot;font-size: 10px&quot;&gt;Send Correspondence&lt;/strike&gt;&lt;br style=&quot;font-size: 10px&quot;&gt;Broadcast Sentiment" style="text;html=1;align=left;verticalAlign=middle;resizable=0;points=[];autosize=1;strokeColor=none;fillColor=none;fontSize=10;" parent="1" vertex="1">
                    <mxGeometry x="400.8299999999999" y="2701.25" width="110" height="28" as="geometry"/>
                </mxCell>
                <mxCell id="PmaRed3diDtcTDXIdMSH-77" value="Subscribe to topic" style="text;html=1;align=center;verticalAlign=middle;resizable=0;points=[];autosize=1;strokeColor=none;fillColor=none;fontSize=10;" parent="1" vertex="1">
                    <mxGeometry x="508.8399999999998" y="3060" width="89" height="16" as="geometry"/>
                </mxCell>
                <mxCell id="PmaRed3diDtcTDXIdMSH-78" value="Send &lt;br&gt;Correspondence&lt;br&gt;Command" style="text;html=1;align=center;verticalAlign=middle;resizable=0;points=[];autosize=1;strokeColor=none;fillColor=none;fontSize=10;" parent="1" vertex="1">
                    <mxGeometry x="325.9999999999999" y="3124" width="84" height="40" as="geometry"/>
                </mxCell>
                <mxCell id="PmaRed3diDtcTDXIdMSH-79" value="Broadcast&amp;nbsp;&lt;br&gt;Sentiment" style="text;html=1;align=center;verticalAlign=middle;resizable=0;points=[];autosize=1;strokeColor=none;fillColor=none;fontSize=10;" parent="1" vertex="1">
                    <mxGeometry x="522.0799999999999" y="3155" width="58" height="28" as="geometry"/>
                </mxCell>
                <mxCell id="5" value="" style="sketch=0;aspect=fixed;html=1;points=[];align=center;image;fontSize=12;image=img/lib/mscae/Event_Grid_Topics.svg;" vertex="1" parent="1">
                    <mxGeometry x="553.8199999999999" y="858" width="38" height="38" as="geometry"/>
                </mxCell>
            </root>
        </mxGraphModel>
    </diagram>
</mxfile>